<mxfile host="Electron" modified="2023-08-06T08:14:14.456Z" agent="Mozilla/5.0 (X11; Linux x86_64) AppleWebKit/537.36 (KHTML, like Gecko) draw.io/21.6.5 Chrome/114.0.5735.243 Electron/25.3.1 Safari/537.36" etag="0o1-_Id34mCyX2_G1I2c" version="21.6.5" type="device">
  <diagram name="PÃ¡gina-1" id="jBcz9zwK7l0HzDHZVu3Y">
    <mxGraphModel dx="1145" dy="1872" grid="1" gridSize="10" guides="1" tooltips="1" connect="1" arrows="1" fold="1" page="1" pageScale="1" pageWidth="827" pageHeight="1169" math="0" shadow="0">
      <root>
        <mxCell id="0" />
        <mxCell id="1" parent="0" />
        <mxCell id="fx7FQPBRw_7MpNHda7E8-191" value="&lt;b&gt;&amp;nbsp; 1st CNN-2D Layer&lt;/b&gt;" style="rounded=0;whiteSpace=wrap;html=1;fillColor=#f5f5f5;strokeColor=#666666;fontColor=#333333;horizontal=1;verticalAlign=top;align=left;" parent="1" vertex="1">
          <mxGeometry x="10" y="-70" width="190" height="330" as="geometry" />
        </mxCell>
        <mxCell id="fx7FQPBRw_7MpNHda7E8-94" value="" style="endArrow=none;html=1;rounded=0;entryX=1;entryY=0;entryDx=0;entryDy=0;exitX=1;exitY=0;exitDx=0;exitDy=0;fillColor=#f5f5f5;strokeColor=#666666;" parent="1" source="gmC2cNr3imGh63kaWOty-576" target="fx7FQPBRw_7MpNHda7E8-60" edge="1">
          <mxGeometry width="50" height="50" relative="1" as="geometry">
            <mxPoint x="100" y="50" as="sourcePoint" />
            <mxPoint x="220" y="90" as="targetPoint" />
          </mxGeometry>
        </mxCell>
        <mxCell id="fx7FQPBRw_7MpNHda7E8-73" value="" style="group" parent="1" vertex="1" connectable="0">
          <mxGeometry x="130" y="10" width="60" height="90" as="geometry" />
        </mxCell>
        <mxCell id="fx7FQPBRw_7MpNHda7E8-70" value="" style="group" parent="fx7FQPBRw_7MpNHda7E8-73" vertex="1" connectable="0">
          <mxGeometry width="60" height="60" as="geometry" />
        </mxCell>
        <mxCell id="fx7FQPBRw_7MpNHda7E8-1" value="" style="whiteSpace=wrap;html=1;aspect=fixed;" parent="fx7FQPBRw_7MpNHda7E8-70" vertex="1">
          <mxGeometry width="60" height="60" as="geometry" />
        </mxCell>
        <mxCell id="fx7FQPBRw_7MpNHda7E8-57" value="&lt;font style=&quot;font-size: 6px;&quot;&gt;w&lt;sub&gt;11&lt;/sub&gt;&lt;/font&gt;" style="whiteSpace=wrap;html=1;aspect=fixed;fillColor=#dae8fc;strokeColor=#6c8ebf;" parent="fx7FQPBRw_7MpNHda7E8-70" vertex="1">
          <mxGeometry width="20" height="20" as="geometry" />
        </mxCell>
        <mxCell id="fx7FQPBRw_7MpNHda7E8-59" value="&lt;font style=&quot;font-size: 6px;&quot;&gt;w&lt;sub style=&quot;border-color: var(--border-color);&quot;&gt;12&lt;/sub&gt;&lt;/font&gt;" style="whiteSpace=wrap;html=1;aspect=fixed;fillColor=#dae8fc;strokeColor=#6c8ebf;" parent="fx7FQPBRw_7MpNHda7E8-70" vertex="1">
          <mxGeometry x="20" width="20" height="20" as="geometry" />
        </mxCell>
        <mxCell id="fx7FQPBRw_7MpNHda7E8-60" value="&lt;font style=&quot;font-size: 6px;&quot;&gt;w&lt;sub style=&quot;border-color: var(--border-color);&quot;&gt;13&lt;/sub&gt;&lt;/font&gt;" style="whiteSpace=wrap;html=1;aspect=fixed;fillColor=#dae8fc;strokeColor=#6c8ebf;" parent="fx7FQPBRw_7MpNHda7E8-70" vertex="1">
          <mxGeometry x="40" width="20" height="20" as="geometry" />
        </mxCell>
        <mxCell id="fx7FQPBRw_7MpNHda7E8-62" value="&lt;font style=&quot;font-size: 5px;&quot;&gt;w&lt;sub style=&quot;border-color: var(--border-color);&quot;&gt;21&lt;/sub&gt;&lt;/font&gt;" style="whiteSpace=wrap;html=1;aspect=fixed;fillColor=#dae8fc;strokeColor=#6c8ebf;" parent="fx7FQPBRw_7MpNHda7E8-70" vertex="1">
          <mxGeometry y="20" width="20" height="20" as="geometry" />
        </mxCell>
        <mxCell id="fx7FQPBRw_7MpNHda7E8-63" value="&lt;font style=&quot;font-size: 6px;&quot;&gt;w&lt;sub style=&quot;border-color: var(--border-color);&quot;&gt;22&lt;/sub&gt;&lt;/font&gt;" style="whiteSpace=wrap;html=1;aspect=fixed;fillColor=#dae8fc;strokeColor=#6c8ebf;" parent="fx7FQPBRw_7MpNHda7E8-70" vertex="1">
          <mxGeometry x="20" y="20" width="20" height="20" as="geometry" />
        </mxCell>
        <mxCell id="fx7FQPBRw_7MpNHda7E8-64" value="&lt;font style=&quot;font-size: 6px;&quot;&gt;w&lt;sub style=&quot;border-color: var(--border-color);&quot;&gt;23&lt;/sub&gt;&lt;/font&gt;" style="whiteSpace=wrap;html=1;aspect=fixed;fillColor=#dae8fc;strokeColor=#6c8ebf;" parent="fx7FQPBRw_7MpNHda7E8-70" vertex="1">
          <mxGeometry x="40" y="20" width="20" height="20" as="geometry" />
        </mxCell>
        <mxCell id="fx7FQPBRw_7MpNHda7E8-65" value="&lt;font style=&quot;font-size: 6px;&quot;&gt;w&lt;sub style=&quot;border-color: var(--border-color);&quot;&gt;31&lt;/sub&gt;&lt;/font&gt;" style="whiteSpace=wrap;html=1;aspect=fixed;fillColor=#dae8fc;strokeColor=#6c8ebf;" parent="fx7FQPBRw_7MpNHda7E8-70" vertex="1">
          <mxGeometry y="40" width="20" height="20" as="geometry" />
        </mxCell>
        <mxCell id="fx7FQPBRw_7MpNHda7E8-66" value="&lt;font style=&quot;font-size: 6px;&quot;&gt;w&lt;sub style=&quot;border-color: var(--border-color);&quot;&gt;32&lt;/sub&gt;&lt;/font&gt;" style="whiteSpace=wrap;html=1;aspect=fixed;fillColor=#dae8fc;strokeColor=#6c8ebf;" parent="fx7FQPBRw_7MpNHda7E8-70" vertex="1">
          <mxGeometry x="20" y="40" width="20" height="20" as="geometry" />
        </mxCell>
        <mxCell id="fx7FQPBRw_7MpNHda7E8-67" value="&lt;font style=&quot;font-size: 6px;&quot;&gt;w&lt;sub style=&quot;border-color: var(--border-color);&quot;&gt;33&lt;/sub&gt;&lt;/font&gt;" style="whiteSpace=wrap;html=1;aspect=fixed;fillColor=#dae8fc;strokeColor=#6c8ebf;" parent="fx7FQPBRw_7MpNHda7E8-70" vertex="1">
          <mxGeometry x="40" y="40" width="20" height="20" as="geometry" />
        </mxCell>
        <mxCell id="fx7FQPBRw_7MpNHda7E8-91" value="" style="endArrow=none;html=1;rounded=0;entryX=0;entryY=0;entryDx=0;entryDy=0;exitX=0;exitY=0;exitDx=0;exitDy=0;fillColor=#f5f5f5;strokeColor=#666666;" parent="1" source="fx7FQPBRw_7MpNHda7E8-84" target="fx7FQPBRw_7MpNHda7E8-57" edge="1">
          <mxGeometry width="50" height="50" relative="1" as="geometry">
            <mxPoint x="20" y="50" as="sourcePoint" />
            <mxPoint x="190" y="110" as="targetPoint" />
          </mxGeometry>
        </mxCell>
        <mxCell id="fx7FQPBRw_7MpNHda7E8-95" value="" style="group" parent="1" vertex="1" connectable="0">
          <mxGeometry x="240" y="90" width="140" height="170" as="geometry" />
        </mxCell>
        <mxCell id="fx7FQPBRw_7MpNHda7E8-96" value="" style="group" parent="fx7FQPBRw_7MpNHda7E8-95" vertex="1" connectable="0">
          <mxGeometry width="140" height="170" as="geometry" />
        </mxCell>
        <mxCell id="fx7FQPBRw_7MpNHda7E8-192" value="&lt;b&gt;&amp;nbsp; 2nd CNN-2D Layer&lt;/b&gt;" style="rounded=0;whiteSpace=wrap;html=1;fillColor=#f5f5f5;strokeColor=#666666;fontColor=#333333;horizontal=1;verticalAlign=top;align=left;" parent="fx7FQPBRw_7MpNHda7E8-96" vertex="1">
          <mxGeometry x="-30" y="-160" width="170" height="330" as="geometry" />
        </mxCell>
        <mxCell id="gmC2cNr3imGh63kaWOty-4" value="" style="group" parent="fx7FQPBRw_7MpNHda7E8-96" vertex="1" connectable="0">
          <mxGeometry width="100" height="130" as="geometry" />
        </mxCell>
        <mxCell id="gmC2cNr3imGh63kaWOty-5" value="" style="group" parent="gmC2cNr3imGh63kaWOty-4" vertex="1" connectable="0">
          <mxGeometry width="100" height="100" as="geometry" />
        </mxCell>
        <mxCell id="gmC2cNr3imGh63kaWOty-9" value="" style="endArrow=none;html=1;rounded=0;entryX=0.75;entryY=0;entryDx=0;entryDy=0;" parent="gmC2cNr3imGh63kaWOty-5" edge="1">
          <mxGeometry width="50" height="50" relative="1" as="geometry">
            <mxPoint x="80" y="100" as="sourcePoint" />
            <mxPoint x="80" as="targetPoint" />
          </mxGeometry>
        </mxCell>
        <mxCell id="gmC2cNr3imGh63kaWOty-13" value="" style="endArrow=none;html=1;rounded=0;entryX=0.75;entryY=0;entryDx=0;entryDy=0;" parent="gmC2cNr3imGh63kaWOty-5" edge="1">
          <mxGeometry width="50" height="50" relative="1" as="geometry">
            <mxPoint y="80" as="sourcePoint" />
            <mxPoint x="100" y="80" as="targetPoint" />
          </mxGeometry>
        </mxCell>
        <mxCell id="gmC2cNr3imGh63kaWOty-14" value="" style="whiteSpace=wrap;html=1;aspect=fixed;fillColor=#d5e8d4;strokeColor=#82b366;container=0;" parent="gmC2cNr3imGh63kaWOty-5" vertex="1">
          <mxGeometry x="80" y="80" width="20" height="20" as="geometry" />
        </mxCell>
        <mxCell id="gmC2cNr3imGh63kaWOty-15" value="" style="whiteSpace=wrap;html=1;aspect=fixed;fillColor=#d5e8d4;strokeColor=#82b366;container=0;" parent="gmC2cNr3imGh63kaWOty-5" vertex="1">
          <mxGeometry x="80" y="60" width="20" height="20" as="geometry" />
        </mxCell>
        <mxCell id="gmC2cNr3imGh63kaWOty-16" value="" style="whiteSpace=wrap;html=1;aspect=fixed;fillColor=#d5e8d4;strokeColor=#82b366;container=0;" parent="gmC2cNr3imGh63kaWOty-5" vertex="1">
          <mxGeometry x="80" y="40" width="20" height="20" as="geometry" />
        </mxCell>
        <mxCell id="gmC2cNr3imGh63kaWOty-17" value="" style="whiteSpace=wrap;html=1;aspect=fixed;fillColor=#d5e8d4;strokeColor=#82b366;container=0;" parent="gmC2cNr3imGh63kaWOty-5" vertex="1">
          <mxGeometry x="80" y="20" width="20" height="20" as="geometry" />
        </mxCell>
        <mxCell id="gmC2cNr3imGh63kaWOty-18" value="" style="whiteSpace=wrap;html=1;aspect=fixed;fillColor=#d5e8d4;strokeColor=#82b366;container=0;" parent="gmC2cNr3imGh63kaWOty-5" vertex="1">
          <mxGeometry x="80" width="20" height="20" as="geometry" />
        </mxCell>
        <mxCell id="gmC2cNr3imGh63kaWOty-19" value="" style="whiteSpace=wrap;html=1;aspect=fixed;fillColor=#d5e8d4;strokeColor=#82b366;container=0;" parent="gmC2cNr3imGh63kaWOty-5" vertex="1">
          <mxGeometry x="60" y="80" width="20" height="20" as="geometry" />
        </mxCell>
        <mxCell id="gmC2cNr3imGh63kaWOty-20" value="" style="whiteSpace=wrap;html=1;aspect=fixed;fillColor=#d5e8d4;strokeColor=#82b366;container=0;" parent="gmC2cNr3imGh63kaWOty-5" vertex="1">
          <mxGeometry x="40" y="80" width="20" height="20" as="geometry" />
        </mxCell>
        <mxCell id="gmC2cNr3imGh63kaWOty-21" value="" style="whiteSpace=wrap;html=1;aspect=fixed;fillColor=#d5e8d4;strokeColor=#82b366;container=0;" parent="gmC2cNr3imGh63kaWOty-5" vertex="1">
          <mxGeometry y="80" width="20" height="20" as="geometry" />
        </mxCell>
        <mxCell id="gmC2cNr3imGh63kaWOty-22" value="" style="whiteSpace=wrap;html=1;aspect=fixed;fillColor=#d5e8d4;strokeColor=#82b366;container=0;" parent="gmC2cNr3imGh63kaWOty-5" vertex="1">
          <mxGeometry x="20" y="80" width="20" height="20" as="geometry" />
        </mxCell>
        <mxCell id="gmC2cNr3imGh63kaWOty-23" value="" style="whiteSpace=wrap;html=1;aspect=fixed;fillColor=#d5e8d4;strokeColor=#82b366;container=0;" parent="gmC2cNr3imGh63kaWOty-5" vertex="1">
          <mxGeometry y="60" width="20" height="20" as="geometry" />
        </mxCell>
        <mxCell id="gmC2cNr3imGh63kaWOty-36" value="" style="whiteSpace=wrap;html=1;aspect=fixed;fillColor=#d5e8d4;strokeColor=#82b366;container=0;" parent="gmC2cNr3imGh63kaWOty-5" vertex="1">
          <mxGeometry y="40" width="20" height="20" as="geometry" />
        </mxCell>
        <mxCell id="gmC2cNr3imGh63kaWOty-50" value="" style="whiteSpace=wrap;html=1;aspect=fixed;fillColor=#d5e8d4;strokeColor=#82b366;container=0;" parent="gmC2cNr3imGh63kaWOty-5" vertex="1">
          <mxGeometry y="20" width="20" height="20" as="geometry" />
        </mxCell>
        <mxCell id="gmC2cNr3imGh63kaWOty-51" value="" style="whiteSpace=wrap;html=1;aspect=fixed;fillColor=#dae8fc;strokeColor=#6c8ebf;container=0;" parent="gmC2cNr3imGh63kaWOty-5" vertex="1">
          <mxGeometry width="20" height="20" as="geometry" />
        </mxCell>
        <mxCell id="gmC2cNr3imGh63kaWOty-240" value="" style="endArrow=none;html=1;rounded=0;entryX=0;entryY=0;entryDx=0;entryDy=0;exitX=0;exitY=0;exitDx=0;exitDy=0;" parent="gmC2cNr3imGh63kaWOty-5" source="gmC2cNr3imGh63kaWOty-50" target="gmC2cNr3imGh63kaWOty-51" edge="1">
          <mxGeometry width="50" height="50" relative="1" as="geometry">
            <mxPoint x="-10" y="110" as="sourcePoint" />
            <mxPoint x="40" y="60" as="targetPoint" />
          </mxGeometry>
        </mxCell>
        <mxCell id="gmC2cNr3imGh63kaWOty-241" value="" style="endArrow=none;html=1;rounded=0;entryX=1;entryY=1;entryDx=0;entryDy=0;exitX=0;exitY=0;exitDx=0;exitDy=0;" parent="gmC2cNr3imGh63kaWOty-5" source="gmC2cNr3imGh63kaWOty-50" target="gmC2cNr3imGh63kaWOty-51" edge="1">
          <mxGeometry width="50" height="50" relative="1" as="geometry">
            <mxPoint x="10" y="30" as="sourcePoint" />
            <mxPoint x="10" y="10" as="targetPoint" />
          </mxGeometry>
        </mxCell>
        <mxCell id="gmC2cNr3imGh63kaWOty-242" value="" style="endArrow=none;html=1;rounded=0;entryX=1;entryY=0;entryDx=0;entryDy=0;exitX=1;exitY=1;exitDx=0;exitDy=0;" parent="gmC2cNr3imGh63kaWOty-5" source="gmC2cNr3imGh63kaWOty-51" target="gmC2cNr3imGh63kaWOty-51" edge="1">
          <mxGeometry width="50" height="50" relative="1" as="geometry">
            <mxPoint x="20" y="40" as="sourcePoint" />
            <mxPoint x="20" y="20" as="targetPoint" />
          </mxGeometry>
        </mxCell>
        <mxCell id="gmC2cNr3imGh63kaWOty-244" value="" style="endArrow=none;html=1;rounded=0;entryX=0;entryY=0;entryDx=0;entryDy=0;exitX=1;exitY=0;exitDx=0;exitDy=0;" parent="gmC2cNr3imGh63kaWOty-5" source="gmC2cNr3imGh63kaWOty-51" target="gmC2cNr3imGh63kaWOty-51" edge="1">
          <mxGeometry width="50" height="50" relative="1" as="geometry">
            <mxPoint x="40" y="60" as="sourcePoint" />
            <mxPoint x="40" y="40" as="targetPoint" />
          </mxGeometry>
        </mxCell>
        <mxCell id="gmC2cNr3imGh63kaWOty-261" value="" style="endArrow=none;html=1;rounded=0;entryX=1;entryY=1;entryDx=0;entryDy=0;exitX=0;exitY=0;exitDx=0;exitDy=0;" parent="gmC2cNr3imGh63kaWOty-5" source="gmC2cNr3imGh63kaWOty-15" target="gmC2cNr3imGh63kaWOty-36" edge="1">
          <mxGeometry width="50" height="50" relative="1" as="geometry">
            <mxPoint x="90" y="70" as="sourcePoint" />
            <mxPoint x="90" y="10" as="targetPoint" />
          </mxGeometry>
        </mxCell>
        <mxCell id="gmC2cNr3imGh63kaWOty-40" value="64&lt;br&gt;Feature Maps 5x5" style="text;html=1;strokeColor=none;fillColor=none;align=center;verticalAlign=middle;whiteSpace=wrap;rounded=0;" parent="gmC2cNr3imGh63kaWOty-4" vertex="1">
          <mxGeometry y="110" width="100" height="30" as="geometry" />
        </mxCell>
        <mxCell id="gmC2cNr3imGh63kaWOty-57" value="" style="group" parent="fx7FQPBRw_7MpNHda7E8-96" vertex="1" connectable="0">
          <mxGeometry x="20" width="60" height="60" as="geometry" />
        </mxCell>
        <mxCell id="gmC2cNr3imGh63kaWOty-43" value="X" style="whiteSpace=wrap;html=1;aspect=fixed;fillColor=#f8cecc;strokeColor=#b85450;container=0;" parent="gmC2cNr3imGh63kaWOty-57" vertex="1">
          <mxGeometry y="40" width="20" height="20" as="geometry" />
        </mxCell>
        <mxCell id="gmC2cNr3imGh63kaWOty-45" value="X" style="whiteSpace=wrap;html=1;aspect=fixed;fillColor=#f8cecc;strokeColor=#b85450;container=0;" parent="gmC2cNr3imGh63kaWOty-57" vertex="1">
          <mxGeometry x="20" y="40" width="20" height="20" as="geometry" />
        </mxCell>
        <mxCell id="gmC2cNr3imGh63kaWOty-52" value="X" style="whiteSpace=wrap;html=1;aspect=fixed;fillColor=#f8cecc;strokeColor=#b85450;container=0;" parent="gmC2cNr3imGh63kaWOty-57" vertex="1">
          <mxGeometry x="40" y="40" width="20" height="20" as="geometry" />
        </mxCell>
        <mxCell id="gmC2cNr3imGh63kaWOty-44" value="X" style="whiteSpace=wrap;html=1;aspect=fixed;fillColor=#f8cecc;strokeColor=#b85450;container=0;" parent="gmC2cNr3imGh63kaWOty-57" vertex="1">
          <mxGeometry y="20" width="20" height="20" as="geometry" />
        </mxCell>
        <mxCell id="gmC2cNr3imGh63kaWOty-46" value="X" style="whiteSpace=wrap;html=1;aspect=fixed;fillColor=#f8cecc;strokeColor=#b85450;container=0;" parent="gmC2cNr3imGh63kaWOty-57" vertex="1">
          <mxGeometry x="20" y="20" width="20" height="20" as="geometry" />
        </mxCell>
        <mxCell id="gmC2cNr3imGh63kaWOty-53" value="X" style="whiteSpace=wrap;html=1;aspect=fixed;fillColor=#f8cecc;strokeColor=#b85450;container=0;" parent="gmC2cNr3imGh63kaWOty-57" vertex="1">
          <mxGeometry x="40" y="20" width="20" height="20" as="geometry" />
        </mxCell>
        <mxCell id="gmC2cNr3imGh63kaWOty-54" value="X" style="whiteSpace=wrap;html=1;aspect=fixed;fillColor=#f8cecc;strokeColor=#b85450;container=0;" parent="gmC2cNr3imGh63kaWOty-57" vertex="1">
          <mxGeometry width="20" height="20" as="geometry" />
        </mxCell>
        <mxCell id="gmC2cNr3imGh63kaWOty-55" value="X" style="whiteSpace=wrap;html=1;aspect=fixed;fillColor=#f8cecc;strokeColor=#b85450;container=0;" parent="gmC2cNr3imGh63kaWOty-57" vertex="1">
          <mxGeometry x="20" width="20" height="20" as="geometry" />
        </mxCell>
        <mxCell id="gmC2cNr3imGh63kaWOty-56" value="X" style="whiteSpace=wrap;html=1;aspect=fixed;fillColor=#f8cecc;strokeColor=#b85450;container=0;" parent="gmC2cNr3imGh63kaWOty-57" vertex="1">
          <mxGeometry x="40" width="20" height="20" as="geometry" />
        </mxCell>
        <mxCell id="gmC2cNr3imGh63kaWOty-102" value="" style="endArrow=none;html=1;rounded=0;exitX=0;exitY=1;exitDx=0;exitDy=0;entryX=0;entryY=0;entryDx=0;entryDy=0;" parent="gmC2cNr3imGh63kaWOty-57" edge="1">
          <mxGeometry width="50" height="50" relative="1" as="geometry">
            <mxPoint y="59.670000000000016" as="sourcePoint" />
            <mxPoint x="60" y="59.670000000000016" as="targetPoint" />
          </mxGeometry>
        </mxCell>
        <mxCell id="gmC2cNr3imGh63kaWOty-103" value="" style="endArrow=none;html=1;rounded=0;exitX=0;exitY=0;exitDx=0;exitDy=0;entryX=0;entryY=1;entryDx=0;entryDy=0;" parent="gmC2cNr3imGh63kaWOty-57" edge="1">
          <mxGeometry width="50" height="50" relative="1" as="geometry">
            <mxPoint y="-0.3299999999999983" as="sourcePoint" />
            <mxPoint y="59.670000000000016" as="targetPoint" />
          </mxGeometry>
        </mxCell>
        <mxCell id="gmC2cNr3imGh63kaWOty-104" value="" style="endArrow=none;html=1;rounded=0;exitX=0;exitY=1;exitDx=0;exitDy=0;entryX=0;entryY=0;entryDx=0;entryDy=0;" parent="gmC2cNr3imGh63kaWOty-57" edge="1">
          <mxGeometry width="50" height="50" relative="1" as="geometry">
            <mxPoint y="-0.3299999999999983" as="sourcePoint" />
            <mxPoint x="60" y="-0.3299999999999983" as="targetPoint" />
          </mxGeometry>
        </mxCell>
        <mxCell id="gmC2cNr3imGh63kaWOty-105" value="" style="endArrow=none;html=1;rounded=0;entryX=1;entryY=0;entryDx=0;entryDy=0;exitX=1;exitY=1;exitDx=0;exitDy=0;" parent="gmC2cNr3imGh63kaWOty-57" source="gmC2cNr3imGh63kaWOty-52" target="gmC2cNr3imGh63kaWOty-56" edge="1">
          <mxGeometry width="50" height="50" relative="1" as="geometry">
            <mxPoint x="-84" y="60" as="sourcePoint" />
            <mxPoint x="-34" y="10" as="targetPoint" />
          </mxGeometry>
        </mxCell>
        <mxCell id="gmC2cNr3imGh63kaWOty-109" value="" style="endArrow=none;html=1;rounded=0;entryX=1;entryY=0;entryDx=0;entryDy=0;exitX=1;exitY=0;exitDx=0;exitDy=0;fillColor=#f5f5f5;strokeColor=#666666;" parent="fx7FQPBRw_7MpNHda7E8-96" source="gmC2cNr3imGh63kaWOty-56" target="fx7FQPBRw_7MpNHda7E8-199" edge="1">
          <mxGeometry width="50" height="50" relative="1" as="geometry">
            <mxPoint x="30" y="90" as="sourcePoint" />
            <mxPoint x="80" y="-10" as="targetPoint" />
          </mxGeometry>
        </mxCell>
        <mxCell id="gmC2cNr3imGh63kaWOty-106" value="" style="endArrow=none;html=1;rounded=0;entryX=1;entryY=1;entryDx=0;entryDy=0;exitX=1;exitY=1;exitDx=0;exitDy=0;fillColor=#f5f5f5;strokeColor=#666666;" parent="fx7FQPBRw_7MpNHda7E8-96" source="gmC2cNr3imGh63kaWOty-52" target="fx7FQPBRw_7MpNHda7E8-205" edge="1">
          <mxGeometry width="50" height="50" relative="1" as="geometry">
            <mxPoint x="-174" y="50" as="sourcePoint" />
            <mxPoint x="-74" y="-10" as="targetPoint" />
          </mxGeometry>
        </mxCell>
        <mxCell id="gmC2cNr3imGh63kaWOty-107" value="" style="endArrow=none;html=1;rounded=0;entryX=0;entryY=0;entryDx=0;entryDy=0;exitX=0;exitY=0;exitDx=0;exitDy=0;fillColor=#f5f5f5;strokeColor=#666666;" parent="fx7FQPBRw_7MpNHda7E8-96" source="gmC2cNr3imGh63kaWOty-54" target="fx7FQPBRw_7MpNHda7E8-197" edge="1">
          <mxGeometry width="50" height="50" relative="1" as="geometry">
            <mxPoint x="90" y="90" as="sourcePoint" />
            <mxPoint x="140" y="-10" as="targetPoint" />
          </mxGeometry>
        </mxCell>
        <mxCell id="fx7FQPBRw_7MpNHda7E8-195" value="" style="group" parent="fx7FQPBRw_7MpNHda7E8-96" vertex="1" connectable="0">
          <mxGeometry x="70" y="-80" width="60" height="60" as="geometry" />
        </mxCell>
        <mxCell id="fx7FQPBRw_7MpNHda7E8-196" value="" style="whiteSpace=wrap;html=1;aspect=fixed;" parent="fx7FQPBRw_7MpNHda7E8-195" vertex="1">
          <mxGeometry width="60" height="60" as="geometry" />
        </mxCell>
        <mxCell id="gmC2cNr3imGh63kaWOty-111" value="" style="group" parent="fx7FQPBRw_7MpNHda7E8-195" vertex="1" connectable="0">
          <mxGeometry width="60" height="60" as="geometry" />
        </mxCell>
        <mxCell id="fx7FQPBRw_7MpNHda7E8-197" value="&lt;font style=&quot;font-size: 6px;&quot;&gt;w&lt;sub&gt;11&lt;/sub&gt;&lt;/font&gt;" style="whiteSpace=wrap;html=1;aspect=fixed;fillColor=#dae8fc;strokeColor=#6c8ebf;" parent="gmC2cNr3imGh63kaWOty-111" vertex="1">
          <mxGeometry width="20" height="20" as="geometry" />
        </mxCell>
        <mxCell id="fx7FQPBRw_7MpNHda7E8-198" value="&lt;font style=&quot;font-size: 6px;&quot;&gt;w&lt;sub style=&quot;border-color: var(--border-color);&quot;&gt;12&lt;/sub&gt;&lt;/font&gt;" style="whiteSpace=wrap;html=1;aspect=fixed;fillColor=#dae8fc;strokeColor=#6c8ebf;" parent="gmC2cNr3imGh63kaWOty-111" vertex="1">
          <mxGeometry x="20" width="20" height="20" as="geometry" />
        </mxCell>
        <mxCell id="fx7FQPBRw_7MpNHda7E8-199" value="&lt;font style=&quot;font-size: 6px;&quot;&gt;w&lt;sub style=&quot;border-color: var(--border-color);&quot;&gt;13&lt;/sub&gt;&lt;/font&gt;" style="whiteSpace=wrap;html=1;aspect=fixed;fillColor=#dae8fc;strokeColor=#6c8ebf;" parent="gmC2cNr3imGh63kaWOty-111" vertex="1">
          <mxGeometry x="40" width="20" height="20" as="geometry" />
        </mxCell>
        <mxCell id="fx7FQPBRw_7MpNHda7E8-200" value="&lt;font style=&quot;font-size: 5px;&quot;&gt;w&lt;sub style=&quot;border-color: var(--border-color);&quot;&gt;21&lt;/sub&gt;&lt;/font&gt;" style="whiteSpace=wrap;html=1;aspect=fixed;fillColor=#dae8fc;strokeColor=#6c8ebf;" parent="gmC2cNr3imGh63kaWOty-111" vertex="1">
          <mxGeometry y="20" width="20" height="20" as="geometry" />
        </mxCell>
        <mxCell id="fx7FQPBRw_7MpNHda7E8-201" value="&lt;font style=&quot;font-size: 6px;&quot;&gt;w&lt;sub style=&quot;border-color: var(--border-color);&quot;&gt;22&lt;/sub&gt;&lt;/font&gt;" style="whiteSpace=wrap;html=1;aspect=fixed;fillColor=#dae8fc;strokeColor=#6c8ebf;" parent="gmC2cNr3imGh63kaWOty-111" vertex="1">
          <mxGeometry x="20" y="20" width="20" height="20" as="geometry" />
        </mxCell>
        <mxCell id="fx7FQPBRw_7MpNHda7E8-202" value="&lt;font style=&quot;font-size: 6px;&quot;&gt;w&lt;sub style=&quot;border-color: var(--border-color);&quot;&gt;23&lt;/sub&gt;&lt;/font&gt;" style="whiteSpace=wrap;html=1;aspect=fixed;fillColor=#dae8fc;strokeColor=#6c8ebf;" parent="gmC2cNr3imGh63kaWOty-111" vertex="1">
          <mxGeometry x="40" y="20" width="20" height="20" as="geometry" />
        </mxCell>
        <mxCell id="fx7FQPBRw_7MpNHda7E8-203" value="&lt;font style=&quot;font-size: 6px;&quot;&gt;w&lt;sub style=&quot;border-color: var(--border-color);&quot;&gt;31&lt;/sub&gt;&lt;/font&gt;" style="whiteSpace=wrap;html=1;aspect=fixed;fillColor=#dae8fc;strokeColor=#6c8ebf;" parent="gmC2cNr3imGh63kaWOty-111" vertex="1">
          <mxGeometry y="40" width="20" height="20" as="geometry" />
        </mxCell>
        <mxCell id="fx7FQPBRw_7MpNHda7E8-204" value="&lt;font style=&quot;font-size: 6px;&quot;&gt;w&lt;sub style=&quot;border-color: var(--border-color);&quot;&gt;32&lt;/sub&gt;&lt;/font&gt;" style="whiteSpace=wrap;html=1;aspect=fixed;fillColor=#dae8fc;strokeColor=#6c8ebf;" parent="gmC2cNr3imGh63kaWOty-111" vertex="1">
          <mxGeometry x="20" y="40" width="20" height="20" as="geometry" />
        </mxCell>
        <mxCell id="fx7FQPBRw_7MpNHda7E8-205" value="&lt;font style=&quot;font-size: 6px;&quot;&gt;w&lt;sub style=&quot;border-color: var(--border-color);&quot;&gt;33&lt;/sub&gt;&lt;/font&gt;" style="whiteSpace=wrap;html=1;aspect=fixed;fillColor=#dae8fc;strokeColor=#6c8ebf;" parent="gmC2cNr3imGh63kaWOty-111" vertex="1">
          <mxGeometry x="40" y="40" width="20" height="20" as="geometry" />
        </mxCell>
        <mxCell id="gmC2cNr3imGh63kaWOty-258" value="" style="whiteSpace=wrap;html=1;aspect=fixed;fillColor=#d5e8d4;strokeColor=#82b366;container=0;" parent="fx7FQPBRw_7MpNHda7E8-96" vertex="1">
          <mxGeometry x="60" y="60" width="20" height="20" as="geometry" />
        </mxCell>
        <mxCell id="gmC2cNr3imGh63kaWOty-259" value="" style="whiteSpace=wrap;html=1;aspect=fixed;fillColor=#d5e8d4;strokeColor=#82b366;container=0;" parent="fx7FQPBRw_7MpNHda7E8-96" vertex="1">
          <mxGeometry x="40" y="60" width="20" height="20" as="geometry" />
        </mxCell>
        <mxCell id="gmC2cNr3imGh63kaWOty-260" value="" style="whiteSpace=wrap;html=1;aspect=fixed;fillColor=#d5e8d4;strokeColor=#82b366;container=0;" parent="fx7FQPBRw_7MpNHda7E8-96" vertex="1">
          <mxGeometry x="20" y="60" width="20" height="20" as="geometry" />
        </mxCell>
        <mxCell id="gmC2cNr3imGh63kaWOty-108" value="" style="endArrow=none;html=1;rounded=0;entryX=0;entryY=1;entryDx=0;entryDy=0;exitX=1;exitY=0;exitDx=0;exitDy=0;fillColor=#f5f5f5;strokeColor=#666666;" parent="fx7FQPBRw_7MpNHda7E8-96" source="gmC2cNr3imGh63kaWOty-23" target="fx7FQPBRw_7MpNHda7E8-203" edge="1">
          <mxGeometry width="50" height="50" relative="1" as="geometry">
            <mxPoint x="30" y="30" as="sourcePoint" />
            <mxPoint x="80" y="-70" as="targetPoint" />
          </mxGeometry>
        </mxCell>
        <mxCell id="gmC2cNr3imGh63kaWOty-262" value="" style="endArrow=none;html=1;rounded=0;entryX=0;entryY=1;entryDx=0;entryDy=0;exitX=0;exitY=0;exitDx=0;exitDy=0;" parent="fx7FQPBRw_7MpNHda7E8-96" source="gmC2cNr3imGh63kaWOty-15" target="gmC2cNr3imGh63kaWOty-43" edge="1">
          <mxGeometry width="50" height="50" relative="1" as="geometry">
            <mxPoint x="90" y="70" as="sourcePoint" />
            <mxPoint x="90" y="10" as="targetPoint" />
          </mxGeometry>
        </mxCell>
        <mxCell id="gmC2cNr3imGh63kaWOty-564" value="&lt;font style=&quot;font-size: 6px;&quot;&gt;Batch Normalization&lt;/font&gt;" style="text;html=1;strokeColor=none;fillColor=none;align=center;verticalAlign=middle;whiteSpace=wrap;rounded=0;rotation=0;" parent="fx7FQPBRw_7MpNHda7E8-96" vertex="1">
          <mxGeometry x="-30" y="-50" width="60" height="30" as="geometry" />
        </mxCell>
        <mxCell id="gmC2cNr3imGh63kaWOty-237" value="&lt;font style=&quot;font-size: 8px;&quot;&gt;(512) Kernels 3x3&lt;/font&gt;" style="text;html=1;strokeColor=none;fillColor=none;align=center;verticalAlign=middle;whiteSpace=wrap;rounded=0;" parent="fx7FQPBRw_7MpNHda7E8-96" vertex="1">
          <mxGeometry x="65" y="-110" width="70" height="30" as="geometry" />
        </mxCell>
        <mxCell id="1yNlWIdsg4cYrgy2wnR2-56" value="" style="endArrow=classic;html=1;rounded=0;exitX=0;exitY=0.5;exitDx=0;exitDy=0;entryX=1;entryY=0.5;entryDx=0;entryDy=0;" edge="1" parent="fx7FQPBRw_7MpNHda7E8-96">
          <mxGeometry width="50" height="50" relative="1" as="geometry">
            <mxPoint x="20.000000000000114" y="73" as="sourcePoint" />
            <mxPoint x="100.00000000000011" y="73" as="targetPoint" />
          </mxGeometry>
        </mxCell>
        <mxCell id="fx7FQPBRw_7MpNHda7E8-189" value="" style="endArrow=classic;html=1;rounded=0;entryX=0;entryY=0;entryDx=0;entryDy=0;exitX=1;exitY=0.5;exitDx=0;exitDy=0;" parent="1" source="fx7FQPBRw_7MpNHda7E8-64" target="gmC2cNr3imGh63kaWOty-51" edge="1">
          <mxGeometry x="0.5082" y="23" width="50" height="50" relative="1" as="geometry">
            <mxPoint x="230" y="140" as="sourcePoint" />
            <mxPoint x="250" y="90" as="targetPoint" />
            <mxPoint as="offset" />
          </mxGeometry>
        </mxCell>
        <mxCell id="gmC2cNr3imGh63kaWOty-238" value="&lt;font style=&quot;font-size: 8px;&quot;&gt;(64) Kernels 3x3&lt;/font&gt;" style="text;html=1;strokeColor=none;fillColor=none;align=center;verticalAlign=middle;whiteSpace=wrap;rounded=0;" parent="1" vertex="1">
          <mxGeometry x="125" y="-20" width="70" height="30" as="geometry" />
        </mxCell>
        <mxCell id="gmC2cNr3imGh63kaWOty-182" value="" style="group" parent="1" vertex="1" connectable="0">
          <mxGeometry x="437.5" y="90" width="152.5" height="170" as="geometry" />
        </mxCell>
        <mxCell id="gmC2cNr3imGh63kaWOty-344" value="" style="group" parent="1" vertex="1" connectable="0">
          <mxGeometry x="620" y="90" width="152.5" height="170" as="geometry" />
        </mxCell>
        <mxCell id="gmC2cNr3imGh63kaWOty-345" value="" style="group" parent="gmC2cNr3imGh63kaWOty-344" vertex="1" connectable="0">
          <mxGeometry width="152.5" height="170" as="geometry" />
        </mxCell>
        <mxCell id="gmC2cNr3imGh63kaWOty-346" value="" style="group" parent="gmC2cNr3imGh63kaWOty-345" vertex="1" connectable="0">
          <mxGeometry width="152.5" height="170" as="geometry" />
        </mxCell>
        <mxCell id="gmC2cNr3imGh63kaWOty-347" value="" style="group" parent="gmC2cNr3imGh63kaWOty-346" vertex="1" connectable="0">
          <mxGeometry width="152.5" height="170" as="geometry" />
        </mxCell>
        <mxCell id="gmC2cNr3imGh63kaWOty-469" value="" style="group" parent="1" vertex="1" connectable="0">
          <mxGeometry x="577.08" y="-70" width="102.9" height="330" as="geometry" />
        </mxCell>
        <mxCell id="gmC2cNr3imGh63kaWOty-399" value="&lt;b&gt;&amp;nbsp; Dense Layer&lt;/b&gt;" style="rounded=0;whiteSpace=wrap;html=1;fillColor=#f5f5f5;strokeColor=#666666;fontColor=#333333;horizontal=1;verticalAlign=top;align=left;" parent="gmC2cNr3imGh63kaWOty-469" vertex="1">
          <mxGeometry width="97.5" height="330" as="geometry" />
        </mxCell>
        <mxCell id="gmC2cNr3imGh63kaWOty-400" value="" style="ellipse;whiteSpace=wrap;html=1;aspect=fixed;fillColor=#e1d5e7;strokeColor=#9673a6;" parent="gmC2cNr3imGh63kaWOty-469" vertex="1">
          <mxGeometry x="37.16" y="76.81" width="23.19" height="23.19" as="geometry" />
        </mxCell>
        <mxCell id="gmC2cNr3imGh63kaWOty-401" value="" style="ellipse;whiteSpace=wrap;html=1;aspect=fixed;fillColor=#e1d5e7;strokeColor=#9673a6;" parent="gmC2cNr3imGh63kaWOty-469" vertex="1">
          <mxGeometry x="37.16" y="250" width="21.19" height="21.19" as="geometry" />
        </mxCell>
        <mxCell id="gmC2cNr3imGh63kaWOty-402" value="&lt;font style=&quot;&quot;&gt;&lt;font style=&quot;font-size: 17px;&quot;&gt;...&lt;/font&gt;&lt;br&gt;&lt;/font&gt;" style="text;html=1;strokeColor=none;fillColor=none;align=center;verticalAlign=middle;whiteSpace=wrap;rounded=0;rotation=90;" parent="gmC2cNr3imGh63kaWOty-469" vertex="1">
          <mxGeometry x="23.856382978723403" y="160" width="58.08510638297872" height="30" as="geometry" />
        </mxCell>
        <mxCell id="gmC2cNr3imGh63kaWOty-491" value="256 neurons" style="text;html=1;strokeColor=none;fillColor=none;align=center;verticalAlign=middle;whiteSpace=wrap;rounded=0;" parent="gmC2cNr3imGh63kaWOty-469" vertex="1">
          <mxGeometry x="2.9000000000000057" y="290" width="100" height="30" as="geometry" />
        </mxCell>
        <mxCell id="1yNlWIdsg4cYrgy2wnR2-4" value="" style="ellipse;whiteSpace=wrap;html=1;aspect=fixed;fillColor=#e1d5e7;strokeColor=#9673a6;" vertex="1" parent="gmC2cNr3imGh63kaWOty-469">
          <mxGeometry x="37.14999999999998" y="110" width="23.19" height="23.19" as="geometry" />
        </mxCell>
        <mxCell id="1yNlWIdsg4cYrgy2wnR2-27" value="" style="ellipse;whiteSpace=wrap;html=1;aspect=fixed;fillColor=#e1d5e7;strokeColor=#9673a6;" vertex="1" parent="gmC2cNr3imGh63kaWOty-469">
          <mxGeometry x="37.14999999999998" y="210" width="23.19" height="23.19" as="geometry" />
        </mxCell>
        <mxCell id="gmC2cNr3imGh63kaWOty-480" value="" style="group" parent="1" vertex="1" connectable="0">
          <mxGeometry x="480" y="-70" width="97.08148936170215" height="330" as="geometry" />
        </mxCell>
        <mxCell id="gmC2cNr3imGh63kaWOty-343" value="&lt;b&gt;&amp;nbsp; Flatten Layer&lt;/b&gt;" style="rounded=0;whiteSpace=wrap;html=1;fillColor=#f5f5f5;strokeColor=#666666;fontColor=#333333;horizontal=1;verticalAlign=top;align=left;" parent="gmC2cNr3imGh63kaWOty-480" vertex="1">
          <mxGeometry width="90" height="330" as="geometry" />
        </mxCell>
        <mxCell id="gmC2cNr3imGh63kaWOty-466" value="" style="group" parent="gmC2cNr3imGh63kaWOty-480" vertex="1" connectable="0">
          <mxGeometry x="39" y="60" width="10" height="250" as="geometry" />
        </mxCell>
        <mxCell id="gmC2cNr3imGh63kaWOty-433" value="" style="group" parent="gmC2cNr3imGh63kaWOty-466" vertex="1" connectable="0">
          <mxGeometry width="10" height="100" as="geometry" />
        </mxCell>
        <mxCell id="gmC2cNr3imGh63kaWOty-404" value="" style="whiteSpace=wrap;html=1;aspect=fixed;fillColor=#d5e8d4;strokeColor=#82b366;container=0;" parent="gmC2cNr3imGh63kaWOty-433" vertex="1">
          <mxGeometry width="10" height="10" as="geometry" />
        </mxCell>
        <mxCell id="gmC2cNr3imGh63kaWOty-405" value="" style="whiteSpace=wrap;html=1;aspect=fixed;fillColor=#d5e8d4;strokeColor=#82b366;container=0;" parent="gmC2cNr3imGh63kaWOty-433" vertex="1">
          <mxGeometry y="10" width="10" height="10" as="geometry" />
        </mxCell>
        <mxCell id="gmC2cNr3imGh63kaWOty-406" value="" style="whiteSpace=wrap;html=1;aspect=fixed;fillColor=#d5e8d4;strokeColor=#82b366;container=0;" parent="gmC2cNr3imGh63kaWOty-433" vertex="1">
          <mxGeometry y="20" width="10" height="10" as="geometry" />
        </mxCell>
        <mxCell id="gmC2cNr3imGh63kaWOty-408" value="" style="whiteSpace=wrap;html=1;aspect=fixed;fillColor=#d5e8d4;strokeColor=#82b366;container=0;" parent="gmC2cNr3imGh63kaWOty-433" vertex="1">
          <mxGeometry y="30" width="10" height="10" as="geometry" />
        </mxCell>
        <mxCell id="gmC2cNr3imGh63kaWOty-409" value="" style="whiteSpace=wrap;html=1;aspect=fixed;fillColor=#d5e8d4;strokeColor=#82b366;container=0;" parent="gmC2cNr3imGh63kaWOty-433" vertex="1">
          <mxGeometry y="40" width="10" height="10" as="geometry" />
        </mxCell>
        <mxCell id="gmC2cNr3imGh63kaWOty-410" value="" style="whiteSpace=wrap;html=1;aspect=fixed;fillColor=#d5e8d4;strokeColor=#82b366;container=0;" parent="gmC2cNr3imGh63kaWOty-433" vertex="1">
          <mxGeometry y="50" width="10" height="10" as="geometry" />
        </mxCell>
        <mxCell id="gmC2cNr3imGh63kaWOty-411" value="" style="whiteSpace=wrap;html=1;aspect=fixed;fillColor=#d5e8d4;strokeColor=#82b366;container=0;" parent="gmC2cNr3imGh63kaWOty-433" vertex="1">
          <mxGeometry y="60" width="10" height="10" as="geometry" />
        </mxCell>
        <mxCell id="gmC2cNr3imGh63kaWOty-412" value="" style="whiteSpace=wrap;html=1;aspect=fixed;fillColor=#d5e8d4;strokeColor=#82b366;container=0;" parent="gmC2cNr3imGh63kaWOty-433" vertex="1">
          <mxGeometry y="70" width="10" height="10" as="geometry" />
        </mxCell>
        <mxCell id="gmC2cNr3imGh63kaWOty-413" value="" style="whiteSpace=wrap;html=1;aspect=fixed;fillColor=#d5e8d4;strokeColor=#82b366;container=0;" parent="gmC2cNr3imGh63kaWOty-433" vertex="1">
          <mxGeometry y="80" width="10" height="10" as="geometry" />
        </mxCell>
        <mxCell id="gmC2cNr3imGh63kaWOty-414" value="" style="whiteSpace=wrap;html=1;aspect=fixed;fillColor=#d5e8d4;strokeColor=#82b366;container=0;" parent="gmC2cNr3imGh63kaWOty-433" vertex="1">
          <mxGeometry y="90" width="10" height="10" as="geometry" />
        </mxCell>
        <mxCell id="gmC2cNr3imGh63kaWOty-445" value="" style="group" parent="gmC2cNr3imGh63kaWOty-466" vertex="1" connectable="0">
          <mxGeometry y="100" width="10" height="100" as="geometry" />
        </mxCell>
        <mxCell id="gmC2cNr3imGh63kaWOty-446" value="" style="whiteSpace=wrap;html=1;aspect=fixed;fillColor=#d5e8d4;strokeColor=#82b366;container=0;" parent="gmC2cNr3imGh63kaWOty-445" vertex="1">
          <mxGeometry width="10" height="10" as="geometry" />
        </mxCell>
        <mxCell id="gmC2cNr3imGh63kaWOty-447" value="" style="whiteSpace=wrap;html=1;aspect=fixed;fillColor=#d5e8d4;strokeColor=#82b366;container=0;" parent="gmC2cNr3imGh63kaWOty-445" vertex="1">
          <mxGeometry y="10" width="10" height="10" as="geometry" />
        </mxCell>
        <mxCell id="gmC2cNr3imGh63kaWOty-448" value="" style="whiteSpace=wrap;html=1;aspect=fixed;fillColor=#d5e8d4;strokeColor=#82b366;container=0;" parent="gmC2cNr3imGh63kaWOty-445" vertex="1">
          <mxGeometry y="20" width="10" height="10" as="geometry" />
        </mxCell>
        <mxCell id="gmC2cNr3imGh63kaWOty-449" value="" style="whiteSpace=wrap;html=1;aspect=fixed;fillColor=#d5e8d4;strokeColor=#82b366;container=0;" parent="gmC2cNr3imGh63kaWOty-445" vertex="1">
          <mxGeometry y="30" width="10" height="10" as="geometry" />
        </mxCell>
        <mxCell id="gmC2cNr3imGh63kaWOty-450" value="" style="whiteSpace=wrap;html=1;aspect=fixed;fillColor=#d5e8d4;strokeColor=#82b366;container=0;" parent="gmC2cNr3imGh63kaWOty-445" vertex="1">
          <mxGeometry y="40" width="10" height="10" as="geometry" />
        </mxCell>
        <mxCell id="gmC2cNr3imGh63kaWOty-451" value="" style="whiteSpace=wrap;html=1;aspect=fixed;fillColor=#d5e8d4;strokeColor=#82b366;container=0;" parent="gmC2cNr3imGh63kaWOty-445" vertex="1">
          <mxGeometry y="50" width="10" height="10" as="geometry" />
        </mxCell>
        <mxCell id="gmC2cNr3imGh63kaWOty-452" value="" style="whiteSpace=wrap;html=1;aspect=fixed;fillColor=#d5e8d4;strokeColor=#82b366;container=0;" parent="gmC2cNr3imGh63kaWOty-445" vertex="1">
          <mxGeometry y="60" width="10" height="10" as="geometry" />
        </mxCell>
        <mxCell id="gmC2cNr3imGh63kaWOty-453" value="" style="whiteSpace=wrap;html=1;aspect=fixed;fillColor=#d5e8d4;strokeColor=#82b366;container=0;" parent="gmC2cNr3imGh63kaWOty-445" vertex="1">
          <mxGeometry y="70" width="10" height="10" as="geometry" />
        </mxCell>
        <mxCell id="gmC2cNr3imGh63kaWOty-454" value="" style="whiteSpace=wrap;html=1;aspect=fixed;fillColor=#d5e8d4;strokeColor=#82b366;container=0;" parent="gmC2cNr3imGh63kaWOty-445" vertex="1">
          <mxGeometry y="80" width="10" height="10" as="geometry" />
        </mxCell>
        <mxCell id="gmC2cNr3imGh63kaWOty-455" value="" style="whiteSpace=wrap;html=1;aspect=fixed;fillColor=#d5e8d4;strokeColor=#82b366;container=0;" parent="gmC2cNr3imGh63kaWOty-445" vertex="1">
          <mxGeometry y="90" width="10" height="10" as="geometry" />
        </mxCell>
        <mxCell id="gmC2cNr3imGh63kaWOty-461" value="" style="whiteSpace=wrap;html=1;aspect=fixed;fillColor=#d5e8d4;strokeColor=#82b366;container=0;" parent="gmC2cNr3imGh63kaWOty-466" vertex="1">
          <mxGeometry y="200" width="10" height="10" as="geometry" />
        </mxCell>
        <mxCell id="gmC2cNr3imGh63kaWOty-462" value="" style="whiteSpace=wrap;html=1;aspect=fixed;fillColor=#d5e8d4;strokeColor=#82b366;container=0;" parent="gmC2cNr3imGh63kaWOty-466" vertex="1">
          <mxGeometry y="210" width="10" height="10" as="geometry" />
        </mxCell>
        <mxCell id="gmC2cNr3imGh63kaWOty-463" value="" style="whiteSpace=wrap;html=1;aspect=fixed;fillColor=#d5e8d4;strokeColor=#82b366;container=0;" parent="gmC2cNr3imGh63kaWOty-466" vertex="1">
          <mxGeometry y="220" width="10" height="10" as="geometry" />
        </mxCell>
        <mxCell id="gmC2cNr3imGh63kaWOty-464" value="" style="whiteSpace=wrap;html=1;aspect=fixed;fillColor=#d5e8d4;strokeColor=#82b366;container=0;" parent="gmC2cNr3imGh63kaWOty-466" vertex="1">
          <mxGeometry y="230" width="10" height="10" as="geometry" />
        </mxCell>
        <mxCell id="gmC2cNr3imGh63kaWOty-465" value="" style="whiteSpace=wrap;html=1;aspect=fixed;fillColor=#d5e8d4;strokeColor=#82b366;container=0;" parent="gmC2cNr3imGh63kaWOty-466" vertex="1">
          <mxGeometry y="240" width="10" height="10" as="geometry" />
        </mxCell>
        <mxCell id="gmC2cNr3imGh63kaWOty-551" value="&lt;font style=&quot;&quot;&gt;&lt;font style=&quot;font-size: 16px;&quot;&gt;...&lt;/font&gt;&lt;br&gt;&lt;/font&gt;" style="text;html=1;strokeColor=none;fillColor=none;align=center;verticalAlign=middle;whiteSpace=wrap;rounded=0;rotation=90;" parent="gmC2cNr3imGh63kaWOty-480" vertex="1">
          <mxGeometry x="35.99638297872343" y="210" width="58.08510638297872" height="30" as="geometry" />
        </mxCell>
        <mxCell id="gmC2cNr3imGh63kaWOty-486" value="" style="group" parent="1" vertex="1" connectable="0">
          <mxGeometry x="679.98" y="-70" width="97.5" height="330" as="geometry" />
        </mxCell>
        <mxCell id="gmC2cNr3imGh63kaWOty-487" value="&lt;b&gt;&amp;nbsp; Softmax Layer&lt;/b&gt;" style="rounded=0;whiteSpace=wrap;html=1;fillColor=#f5f5f5;strokeColor=#666666;fontColor=#333333;horizontal=1;verticalAlign=top;align=left;" parent="gmC2cNr3imGh63kaWOty-486" vertex="1">
          <mxGeometry width="97.5" height="330" as="geometry" />
        </mxCell>
        <mxCell id="gmC2cNr3imGh63kaWOty-488" value="&lt;b&gt;Slight&lt;/b&gt;" style="ellipse;whiteSpace=wrap;html=1;aspect=fixed;fillColor=#d5e8d4;strokeColor=#82b366;" parent="gmC2cNr3imGh63kaWOty-486" vertex="1">
          <mxGeometry x="16.589999999999996" y="103.19" width="67.16" height="67.16" as="geometry" />
        </mxCell>
        <mxCell id="gmC2cNr3imGh63kaWOty-550" value="&lt;b&gt;Assistance&lt;/b&gt;" style="ellipse;whiteSpace=wrap;html=1;aspect=fixed;fillColor=#f8cecc;strokeColor=#b85450;" parent="gmC2cNr3imGh63kaWOty-486" vertex="1">
          <mxGeometry x="16.59" y="180" width="70" height="70" as="geometry" />
        </mxCell>
        <mxCell id="gmC2cNr3imGh63kaWOty-493" value="" style="endArrow=none;html=1;rounded=0;entryX=1;entryY=0.5;entryDx=0;entryDy=0;exitX=0;exitY=0.5;exitDx=0;exitDy=0;" parent="1" source="gmC2cNr3imGh63kaWOty-400" target="gmC2cNr3imGh63kaWOty-404" edge="1">
          <mxGeometry width="50" height="50" relative="1" as="geometry">
            <mxPoint x="510" y="100" as="sourcePoint" />
            <mxPoint x="560" y="50" as="targetPoint" />
          </mxGeometry>
        </mxCell>
        <mxCell id="gmC2cNr3imGh63kaWOty-494" value="" style="endArrow=none;html=1;rounded=0;entryX=1;entryY=0.5;entryDx=0;entryDy=0;exitX=0;exitY=0.5;exitDx=0;exitDy=0;" parent="1" source="gmC2cNr3imGh63kaWOty-400" target="gmC2cNr3imGh63kaWOty-405" edge="1">
          <mxGeometry width="50" height="50" relative="1" as="geometry">
            <mxPoint x="646" y="32" as="sourcePoint" />
            <mxPoint x="540" y="5" as="targetPoint" />
          </mxGeometry>
        </mxCell>
        <mxCell id="gmC2cNr3imGh63kaWOty-495" value="" style="endArrow=none;html=1;rounded=0;entryX=1;entryY=0.5;entryDx=0;entryDy=0;exitX=0;exitY=0.5;exitDx=0;exitDy=0;" parent="1" source="gmC2cNr3imGh63kaWOty-400" target="gmC2cNr3imGh63kaWOty-406" edge="1">
          <mxGeometry width="50" height="50" relative="1" as="geometry">
            <mxPoint x="646" y="32" as="sourcePoint" />
            <mxPoint x="540" y="15" as="targetPoint" />
          </mxGeometry>
        </mxCell>
        <mxCell id="gmC2cNr3imGh63kaWOty-496" value="" style="endArrow=none;html=1;rounded=0;exitX=1;exitY=0.5;exitDx=0;exitDy=0;entryX=0;entryY=0.5;entryDx=0;entryDy=0;" parent="1" source="gmC2cNr3imGh63kaWOty-465" target="gmC2cNr3imGh63kaWOty-400" edge="1">
          <mxGeometry width="50" height="50" relative="1" as="geometry">
            <mxPoint x="630" y="190" as="sourcePoint" />
            <mxPoint x="680" y="140" as="targetPoint" />
          </mxGeometry>
        </mxCell>
        <mxCell id="gmC2cNr3imGh63kaWOty-497" value="" style="endArrow=none;html=1;rounded=0;exitX=1;exitY=0.5;exitDx=0;exitDy=0;entryX=0;entryY=0.5;entryDx=0;entryDy=0;" parent="1" source="gmC2cNr3imGh63kaWOty-464" target="gmC2cNr3imGh63kaWOty-400" edge="1">
          <mxGeometry width="50" height="50" relative="1" as="geometry">
            <mxPoint x="700" y="140" as="sourcePoint" />
            <mxPoint x="750" y="90" as="targetPoint" />
          </mxGeometry>
        </mxCell>
        <mxCell id="gmC2cNr3imGh63kaWOty-498" value="" style="endArrow=none;html=1;rounded=0;entryX=0;entryY=0.5;entryDx=0;entryDy=0;exitX=1;exitY=0.5;exitDx=0;exitDy=0;" parent="1" source="gmC2cNr3imGh63kaWOty-408" target="gmC2cNr3imGh63kaWOty-400" edge="1">
          <mxGeometry width="50" height="50" relative="1" as="geometry">
            <mxPoint x="530" y="130" as="sourcePoint" />
            <mxPoint x="580" y="80" as="targetPoint" />
          </mxGeometry>
        </mxCell>
        <mxCell id="gmC2cNr3imGh63kaWOty-499" value="" style="endArrow=none;html=1;rounded=0;entryX=0;entryY=0.5;entryDx=0;entryDy=0;exitX=1;exitY=0.5;exitDx=0;exitDy=0;" parent="1" source="gmC2cNr3imGh63kaWOty-409" target="gmC2cNr3imGh63kaWOty-400" edge="1">
          <mxGeometry width="50" height="50" relative="1" as="geometry">
            <mxPoint x="530" y="130" as="sourcePoint" />
            <mxPoint x="580" y="80" as="targetPoint" />
          </mxGeometry>
        </mxCell>
        <mxCell id="gmC2cNr3imGh63kaWOty-500" value="" style="endArrow=none;html=1;rounded=0;exitX=1;exitY=0.5;exitDx=0;exitDy=0;entryX=0;entryY=0.5;entryDx=0;entryDy=0;" parent="1" source="gmC2cNr3imGh63kaWOty-410" target="gmC2cNr3imGh63kaWOty-400" edge="1">
          <mxGeometry width="50" height="50" relative="1" as="geometry">
            <mxPoint x="480" y="110" as="sourcePoint" />
            <mxPoint x="530" y="60" as="targetPoint" />
          </mxGeometry>
        </mxCell>
        <mxCell id="gmC2cNr3imGh63kaWOty-501" value="" style="endArrow=none;html=1;rounded=0;exitX=1;exitY=0.5;exitDx=0;exitDy=0;entryX=0;entryY=0.5;entryDx=0;entryDy=0;" parent="1" source="gmC2cNr3imGh63kaWOty-411" target="gmC2cNr3imGh63kaWOty-400" edge="1">
          <mxGeometry width="50" height="50" relative="1" as="geometry">
            <mxPoint x="480" y="110" as="sourcePoint" />
            <mxPoint x="530" y="60" as="targetPoint" />
          </mxGeometry>
        </mxCell>
        <mxCell id="gmC2cNr3imGh63kaWOty-502" value="" style="endArrow=none;html=1;rounded=0;exitX=1;exitY=0.5;exitDx=0;exitDy=0;entryX=0;entryY=0.5;entryDx=0;entryDy=0;" parent="1" source="gmC2cNr3imGh63kaWOty-412" target="gmC2cNr3imGh63kaWOty-400" edge="1">
          <mxGeometry width="50" height="50" relative="1" as="geometry">
            <mxPoint x="480" y="110" as="sourcePoint" />
            <mxPoint x="530" y="60" as="targetPoint" />
          </mxGeometry>
        </mxCell>
        <mxCell id="gmC2cNr3imGh63kaWOty-503" value="" style="endArrow=none;html=1;rounded=0;exitX=1;exitY=0.5;exitDx=0;exitDy=0;entryX=0;entryY=0.5;entryDx=0;entryDy=0;" parent="1" source="gmC2cNr3imGh63kaWOty-413" target="gmC2cNr3imGh63kaWOty-400" edge="1">
          <mxGeometry width="50" height="50" relative="1" as="geometry">
            <mxPoint x="480" y="110" as="sourcePoint" />
            <mxPoint x="530" y="60" as="targetPoint" />
          </mxGeometry>
        </mxCell>
        <mxCell id="gmC2cNr3imGh63kaWOty-504" value="" style="endArrow=none;html=1;rounded=0;exitX=1;exitY=0.5;exitDx=0;exitDy=0;entryX=0;entryY=0.5;entryDx=0;entryDy=0;" parent="1" source="gmC2cNr3imGh63kaWOty-414" target="gmC2cNr3imGh63kaWOty-400" edge="1">
          <mxGeometry width="50" height="50" relative="1" as="geometry">
            <mxPoint x="480" y="110" as="sourcePoint" />
            <mxPoint x="530" y="60" as="targetPoint" />
          </mxGeometry>
        </mxCell>
        <mxCell id="gmC2cNr3imGh63kaWOty-505" value="" style="endArrow=none;html=1;rounded=0;exitX=1;exitY=0.5;exitDx=0;exitDy=0;entryX=0;entryY=0.5;entryDx=0;entryDy=0;" parent="1" source="gmC2cNr3imGh63kaWOty-446" target="gmC2cNr3imGh63kaWOty-400" edge="1">
          <mxGeometry width="50" height="50" relative="1" as="geometry">
            <mxPoint x="480" y="120" as="sourcePoint" />
            <mxPoint x="530" y="70" as="targetPoint" />
          </mxGeometry>
        </mxCell>
        <mxCell id="gmC2cNr3imGh63kaWOty-506" value="" style="endArrow=none;html=1;rounded=0;exitX=1;exitY=0.5;exitDx=0;exitDy=0;entryX=0;entryY=0.5;entryDx=0;entryDy=0;" parent="1" source="gmC2cNr3imGh63kaWOty-447" target="gmC2cNr3imGh63kaWOty-400" edge="1">
          <mxGeometry width="50" height="50" relative="1" as="geometry">
            <mxPoint x="480" y="120" as="sourcePoint" />
            <mxPoint x="530" y="70" as="targetPoint" />
          </mxGeometry>
        </mxCell>
        <mxCell id="gmC2cNr3imGh63kaWOty-518" value="" style="endArrow=none;html=1;rounded=0;exitX=1;exitY=0.5;exitDx=0;exitDy=0;entryX=0;entryY=0.5;entryDx=0;entryDy=0;" parent="1" source="gmC2cNr3imGh63kaWOty-448" target="gmC2cNr3imGh63kaWOty-400" edge="1">
          <mxGeometry width="50" height="50" relative="1" as="geometry">
            <mxPoint x="440" y="120" as="sourcePoint" />
            <mxPoint x="490" y="70" as="targetPoint" />
          </mxGeometry>
        </mxCell>
        <mxCell id="gmC2cNr3imGh63kaWOty-522" value="&lt;b&gt;&amp;nbsp;3th and 4th&lt;br&gt;&amp;nbsp;CNN-2D&amp;nbsp; &amp;nbsp;Layers&lt;br&gt;&lt;/b&gt;" style="rounded=0;whiteSpace=wrap;html=1;fillColor=#f5f5f5;strokeColor=#666666;fontColor=#333333;horizontal=1;verticalAlign=top;align=left;" parent="1" vertex="1">
          <mxGeometry x="390" y="-70" width="80" height="330" as="geometry" />
        </mxCell>
        <mxCell id="gmC2cNr3imGh63kaWOty-523" value="..." style="text;html=1;strokeColor=none;fillColor=none;align=center;verticalAlign=middle;whiteSpace=wrap;rounded=0;" parent="1" vertex="1">
          <mxGeometry x="380" y="110" width="100" height="30" as="geometry" />
        </mxCell>
        <mxCell id="gmC2cNr3imGh63kaWOty-531" value="" style="endArrow=none;html=1;rounded=0;exitX=1;exitY=0.5;exitDx=0;exitDy=0;entryX=0;entryY=0.5;entryDx=0;entryDy=0;" parent="1" source="gmC2cNr3imGh63kaWOty-462" target="gmC2cNr3imGh63kaWOty-400" edge="1">
          <mxGeometry width="50" height="50" relative="1" as="geometry">
            <mxPoint x="599" y="205" as="sourcePoint" />
            <mxPoint x="740" y="130" as="targetPoint" />
          </mxGeometry>
        </mxCell>
        <mxCell id="gmC2cNr3imGh63kaWOty-532" value="" style="endArrow=none;html=1;rounded=0;exitX=1;exitY=0.5;exitDx=0;exitDy=0;entryX=-0.079;entryY=0.618;entryDx=0;entryDy=0;entryPerimeter=0;" parent="1" source="gmC2cNr3imGh63kaWOty-463" target="gmC2cNr3imGh63kaWOty-400" edge="1">
          <mxGeometry width="50" height="50" relative="1" as="geometry">
            <mxPoint x="609" y="215" as="sourcePoint" />
            <mxPoint x="750" y="140" as="targetPoint" />
          </mxGeometry>
        </mxCell>
        <mxCell id="gmC2cNr3imGh63kaWOty-533" value="" style="endArrow=none;html=1;rounded=0;exitX=1;exitY=0.5;exitDx=0;exitDy=0;entryX=0;entryY=0.5;entryDx=0;entryDy=0;" parent="1" source="gmC2cNr3imGh63kaWOty-404" target="gmC2cNr3imGh63kaWOty-401" edge="1">
          <mxGeometry width="50" height="50" relative="1" as="geometry">
            <mxPoint x="670" y="80" as="sourcePoint" />
            <mxPoint x="720" y="30" as="targetPoint" />
          </mxGeometry>
        </mxCell>
        <mxCell id="gmC2cNr3imGh63kaWOty-534" value="" style="endArrow=none;html=1;rounded=0;exitX=1;exitY=0.5;exitDx=0;exitDy=0;entryX=0;entryY=0.5;entryDx=0;entryDy=0;" parent="1" source="gmC2cNr3imGh63kaWOty-405" target="gmC2cNr3imGh63kaWOty-401" edge="1">
          <mxGeometry width="50" height="50" relative="1" as="geometry">
            <mxPoint x="559" y="5" as="sourcePoint" />
            <mxPoint x="658" y="201" as="targetPoint" />
          </mxGeometry>
        </mxCell>
        <mxCell id="gmC2cNr3imGh63kaWOty-535" value="" style="endArrow=none;html=1;rounded=0;entryX=0;entryY=0.5;entryDx=0;entryDy=0;exitX=1;exitY=0.5;exitDx=0;exitDy=0;" parent="1" source="gmC2cNr3imGh63kaWOty-406" target="gmC2cNr3imGh63kaWOty-401" edge="1">
          <mxGeometry width="50" height="50" relative="1" as="geometry">
            <mxPoint x="740" y="20" as="sourcePoint" />
            <mxPoint x="668" y="211" as="targetPoint" />
          </mxGeometry>
        </mxCell>
        <mxCell id="gmC2cNr3imGh63kaWOty-536" value="" style="endArrow=none;html=1;rounded=0;exitX=1;exitY=0.5;exitDx=0;exitDy=0;entryX=0;entryY=0.5;entryDx=0;entryDy=0;" parent="1" source="gmC2cNr3imGh63kaWOty-408" target="gmC2cNr3imGh63kaWOty-401" edge="1">
          <mxGeometry width="50" height="50" relative="1" as="geometry">
            <mxPoint x="579" y="25" as="sourcePoint" />
            <mxPoint x="678" y="221" as="targetPoint" />
          </mxGeometry>
        </mxCell>
        <mxCell id="gmC2cNr3imGh63kaWOty-538" value="" style="endArrow=none;html=1;rounded=0;entryX=0;entryY=0.5;entryDx=0;entryDy=0;exitX=1;exitY=0.5;exitDx=0;exitDy=0;" parent="1" source="gmC2cNr3imGh63kaWOty-410" target="gmC2cNr3imGh63kaWOty-401" edge="1">
          <mxGeometry width="50" height="50" relative="1" as="geometry">
            <mxPoint x="520" y="100" as="sourcePoint" />
            <mxPoint x="570" y="50" as="targetPoint" />
          </mxGeometry>
        </mxCell>
        <mxCell id="gmC2cNr3imGh63kaWOty-539" value="" style="endArrow=none;html=1;rounded=0;exitX=1;exitY=0.5;exitDx=0;exitDy=0;entryX=0;entryY=0.5;entryDx=0;entryDy=0;" parent="1" source="gmC2cNr3imGh63kaWOty-409" target="gmC2cNr3imGh63kaWOty-401" edge="1">
          <mxGeometry width="50" height="50" relative="1" as="geometry">
            <mxPoint x="520" y="100" as="sourcePoint" />
            <mxPoint x="570" y="50" as="targetPoint" />
          </mxGeometry>
        </mxCell>
        <mxCell id="gmC2cNr3imGh63kaWOty-540" value="" style="endArrow=none;html=1;rounded=0;exitX=0;exitY=0.5;exitDx=0;exitDy=0;entryX=1;entryY=0.5;entryDx=0;entryDy=0;" parent="1" source="gmC2cNr3imGh63kaWOty-401" target="gmC2cNr3imGh63kaWOty-412" edge="1">
          <mxGeometry width="50" height="50" relative="1" as="geometry">
            <mxPoint x="520" y="100" as="sourcePoint" />
            <mxPoint x="570" y="50" as="targetPoint" />
          </mxGeometry>
        </mxCell>
        <mxCell id="gmC2cNr3imGh63kaWOty-541" value="" style="endArrow=none;html=1;rounded=0;entryX=0;entryY=0.5;entryDx=0;entryDy=0;exitX=1;exitY=0.5;exitDx=0;exitDy=0;" parent="1" source="gmC2cNr3imGh63kaWOty-411" target="gmC2cNr3imGh63kaWOty-401" edge="1">
          <mxGeometry width="50" height="50" relative="1" as="geometry">
            <mxPoint x="520" y="100" as="sourcePoint" />
            <mxPoint x="570" y="50" as="targetPoint" />
          </mxGeometry>
        </mxCell>
        <mxCell id="gmC2cNr3imGh63kaWOty-546" value="" style="endArrow=none;html=1;rounded=0;exitX=1;exitY=0.5;exitDx=0;exitDy=0;entryX=0;entryY=0.5;entryDx=0;entryDy=0;" parent="1" source="gmC2cNr3imGh63kaWOty-413" target="gmC2cNr3imGh63kaWOty-401" edge="1">
          <mxGeometry width="50" height="50" relative="1" as="geometry">
            <mxPoint x="600" y="140" as="sourcePoint" />
            <mxPoint x="650" y="90" as="targetPoint" />
          </mxGeometry>
        </mxCell>
        <mxCell id="gmC2cNr3imGh63kaWOty-547" value="" style="endArrow=none;html=1;rounded=0;exitX=1;exitY=0.5;exitDx=0;exitDy=0;entryX=0;entryY=0.5;entryDx=0;entryDy=0;" parent="1" source="gmC2cNr3imGh63kaWOty-446" target="gmC2cNr3imGh63kaWOty-401" edge="1">
          <mxGeometry width="50" height="50" relative="1" as="geometry">
            <mxPoint x="600" y="130" as="sourcePoint" />
            <mxPoint x="650" y="80" as="targetPoint" />
          </mxGeometry>
        </mxCell>
        <mxCell id="gmC2cNr3imGh63kaWOty-549" value="" style="endArrow=none;html=1;rounded=0;exitX=1;exitY=0.5;exitDx=0;exitDy=0;entryX=0;entryY=0.5;entryDx=0;entryDy=0;" parent="1" source="gmC2cNr3imGh63kaWOty-414" target="gmC2cNr3imGh63kaWOty-401" edge="1">
          <mxGeometry width="50" height="50" relative="1" as="geometry">
            <mxPoint x="600" y="130" as="sourcePoint" />
            <mxPoint x="650" y="80" as="targetPoint" />
          </mxGeometry>
        </mxCell>
        <mxCell id="gmC2cNr3imGh63kaWOty-552" value="" style="endArrow=none;html=1;rounded=0;exitX=0;exitY=0.5;exitDx=0;exitDy=0;entryX=1;entryY=0.5;entryDx=0;entryDy=0;" parent="1" source="gmC2cNr3imGh63kaWOty-401" target="gmC2cNr3imGh63kaWOty-448" edge="1">
          <mxGeometry width="50" height="50" relative="1" as="geometry">
            <mxPoint x="540" y="110" as="sourcePoint" />
            <mxPoint x="590" y="60" as="targetPoint" />
          </mxGeometry>
        </mxCell>
        <mxCell id="gmC2cNr3imGh63kaWOty-553" value="" style="endArrow=none;html=1;rounded=0;entryX=0;entryY=0.5;entryDx=0;entryDy=0;exitX=1;exitY=0.5;exitDx=0;exitDy=0;" parent="1" source="gmC2cNr3imGh63kaWOty-447" target="gmC2cNr3imGh63kaWOty-401" edge="1">
          <mxGeometry width="50" height="50" relative="1" as="geometry">
            <mxPoint x="550" y="140" as="sourcePoint" />
            <mxPoint x="600" y="90" as="targetPoint" />
          </mxGeometry>
        </mxCell>
        <mxCell id="gmC2cNr3imGh63kaWOty-554" value="" style="endArrow=none;html=1;rounded=0;entryX=0;entryY=0.5;entryDx=0;entryDy=0;exitX=1;exitY=0.5;exitDx=0;exitDy=0;" parent="1" source="gmC2cNr3imGh63kaWOty-462" target="gmC2cNr3imGh63kaWOty-401" edge="1">
          <mxGeometry width="50" height="50" relative="1" as="geometry">
            <mxPoint x="620" y="140" as="sourcePoint" />
            <mxPoint x="670" y="90" as="targetPoint" />
          </mxGeometry>
        </mxCell>
        <mxCell id="gmC2cNr3imGh63kaWOty-555" value="" style="endArrow=none;html=1;rounded=0;exitX=1;exitY=0.5;exitDx=0;exitDy=0;entryX=0;entryY=0.5;entryDx=0;entryDy=0;" parent="1" source="gmC2cNr3imGh63kaWOty-463" target="gmC2cNr3imGh63kaWOty-401" edge="1">
          <mxGeometry width="50" height="50" relative="1" as="geometry">
            <mxPoint x="640" y="190" as="sourcePoint" />
            <mxPoint x="690" y="140" as="targetPoint" />
          </mxGeometry>
        </mxCell>
        <mxCell id="gmC2cNr3imGh63kaWOty-556" value="" style="endArrow=none;html=1;rounded=0;exitX=1;exitY=0.5;exitDx=0;exitDy=0;entryX=0;entryY=0.5;entryDx=0;entryDy=0;" parent="1" source="gmC2cNr3imGh63kaWOty-464" target="gmC2cNr3imGh63kaWOty-401" edge="1">
          <mxGeometry width="50" height="50" relative="1" as="geometry">
            <mxPoint x="640" y="190" as="sourcePoint" />
            <mxPoint x="690" y="140" as="targetPoint" />
          </mxGeometry>
        </mxCell>
        <mxCell id="gmC2cNr3imGh63kaWOty-557" value="" style="endArrow=none;html=1;rounded=0;exitX=1;exitY=0.5;exitDx=0;exitDy=0;entryX=0;entryY=0.5;entryDx=0;entryDy=0;" parent="1" source="gmC2cNr3imGh63kaWOty-465" target="gmC2cNr3imGh63kaWOty-401" edge="1">
          <mxGeometry width="50" height="50" relative="1" as="geometry">
            <mxPoint x="640" y="190" as="sourcePoint" />
            <mxPoint x="690" y="140" as="targetPoint" />
          </mxGeometry>
        </mxCell>
        <mxCell id="gmC2cNr3imGh63kaWOty-558" value="" style="endArrow=none;html=1;rounded=0;entryX=0;entryY=0.5;entryDx=0;entryDy=0;exitX=1;exitY=0.5;exitDx=0;exitDy=0;" parent="1" source="gmC2cNr3imGh63kaWOty-400" target="gmC2cNr3imGh63kaWOty-488" edge="1">
          <mxGeometry width="50" height="50" relative="1" as="geometry">
            <mxPoint x="460" y="170" as="sourcePoint" />
            <mxPoint x="510" y="120" as="targetPoint" />
          </mxGeometry>
        </mxCell>
        <mxCell id="gmC2cNr3imGh63kaWOty-559" value="" style="endArrow=none;html=1;rounded=0;entryX=0;entryY=0.5;entryDx=0;entryDy=0;exitX=1;exitY=0.5;exitDx=0;exitDy=0;" parent="1" source="gmC2cNr3imGh63kaWOty-400" target="gmC2cNr3imGh63kaWOty-550" edge="1">
          <mxGeometry width="50" height="50" relative="1" as="geometry">
            <mxPoint x="659" y="32" as="sourcePoint" />
            <mxPoint x="724" y="54" as="targetPoint" />
          </mxGeometry>
        </mxCell>
        <mxCell id="gmC2cNr3imGh63kaWOty-560" value="" style="endArrow=none;html=1;rounded=0;entryX=0;entryY=0.5;entryDx=0;entryDy=0;exitX=1;exitY=0.5;exitDx=0;exitDy=0;" parent="1" source="gmC2cNr3imGh63kaWOty-401" target="gmC2cNr3imGh63kaWOty-488" edge="1">
          <mxGeometry width="50" height="50" relative="1" as="geometry">
            <mxPoint x="669" y="42" as="sourcePoint" />
            <mxPoint x="734" y="64" as="targetPoint" />
          </mxGeometry>
        </mxCell>
        <mxCell id="gmC2cNr3imGh63kaWOty-562" value="" style="endArrow=none;html=1;rounded=0;exitX=1;exitY=0.5;exitDx=0;exitDy=0;entryX=0;entryY=0.5;entryDx=0;entryDy=0;" parent="1" source="gmC2cNr3imGh63kaWOty-401" target="gmC2cNr3imGh63kaWOty-550" edge="1">
          <mxGeometry width="50" height="50" relative="1" as="geometry">
            <mxPoint x="660" y="140" as="sourcePoint" />
            <mxPoint x="710" y="90" as="targetPoint" />
          </mxGeometry>
        </mxCell>
        <mxCell id="gmC2cNr3imGh63kaWOty-566" value="" style="group" parent="1" vertex="1" connectable="0">
          <mxGeometry x="40" y="70" width="120" height="150" as="geometry" />
        </mxCell>
        <mxCell id="fx7FQPBRw_7MpNHda7E8-74" value="" style="group" parent="gmC2cNr3imGh63kaWOty-566" vertex="1" connectable="0">
          <mxGeometry x="20" y="20" width="100" height="130" as="geometry" />
        </mxCell>
        <mxCell id="fx7FQPBRw_7MpNHda7E8-68" value="" style="group" parent="fx7FQPBRw_7MpNHda7E8-74" vertex="1" connectable="0">
          <mxGeometry width="100" height="100" as="geometry" />
        </mxCell>
        <mxCell id="fx7FQPBRw_7MpNHda7E8-5" value="" style="endArrow=none;html=1;rounded=0;entryX=0.75;entryY=0;entryDx=0;entryDy=0;" parent="fx7FQPBRw_7MpNHda7E8-68" edge="1">
          <mxGeometry width="50" height="50" relative="1" as="geometry">
            <mxPoint x="40" y="100" as="sourcePoint" />
            <mxPoint x="40" as="targetPoint" />
          </mxGeometry>
        </mxCell>
        <mxCell id="fx7FQPBRw_7MpNHda7E8-7" value="" style="endArrow=none;html=1;rounded=0;entryX=0.75;entryY=0;entryDx=0;entryDy=0;" parent="fx7FQPBRw_7MpNHda7E8-68" edge="1">
          <mxGeometry width="50" height="50" relative="1" as="geometry">
            <mxPoint x="60" y="100" as="sourcePoint" />
            <mxPoint x="60" as="targetPoint" />
          </mxGeometry>
        </mxCell>
        <mxCell id="fx7FQPBRw_7MpNHda7E8-8" value="" style="endArrow=none;html=1;rounded=0;entryX=0.75;entryY=0;entryDx=0;entryDy=0;" parent="fx7FQPBRw_7MpNHda7E8-68" edge="1">
          <mxGeometry width="50" height="50" relative="1" as="geometry">
            <mxPoint x="80" y="100" as="sourcePoint" />
            <mxPoint x="80" as="targetPoint" />
          </mxGeometry>
        </mxCell>
        <mxCell id="fx7FQPBRw_7MpNHda7E8-11" value="" style="endArrow=none;html=1;rounded=0;entryX=0.75;entryY=0;entryDx=0;entryDy=0;" parent="fx7FQPBRw_7MpNHda7E8-68" edge="1">
          <mxGeometry width="50" height="50" relative="1" as="geometry">
            <mxPoint y="40" as="sourcePoint" />
            <mxPoint x="100" y="40" as="targetPoint" />
          </mxGeometry>
        </mxCell>
        <mxCell id="fx7FQPBRw_7MpNHda7E8-12" value="" style="endArrow=none;html=1;rounded=0;entryX=0.75;entryY=0;entryDx=0;entryDy=0;" parent="fx7FQPBRw_7MpNHda7E8-68" edge="1">
          <mxGeometry width="50" height="50" relative="1" as="geometry">
            <mxPoint y="60" as="sourcePoint" />
            <mxPoint x="100" y="60" as="targetPoint" />
          </mxGeometry>
        </mxCell>
        <mxCell id="fx7FQPBRw_7MpNHda7E8-13" value="" style="endArrow=none;html=1;rounded=0;entryX=0.75;entryY=0;entryDx=0;entryDy=0;" parent="fx7FQPBRw_7MpNHda7E8-68" edge="1">
          <mxGeometry width="50" height="50" relative="1" as="geometry">
            <mxPoint y="80" as="sourcePoint" />
            <mxPoint x="100" y="80" as="targetPoint" />
          </mxGeometry>
        </mxCell>
        <mxCell id="fx7FQPBRw_7MpNHda7E8-15" value="" style="whiteSpace=wrap;html=1;aspect=fixed;fillColor=#ffe6cc;strokeColor=#d79b00;container=0;" parent="fx7FQPBRw_7MpNHda7E8-68" vertex="1">
          <mxGeometry x="80" y="80" width="20" height="20" as="geometry" />
        </mxCell>
        <mxCell id="fx7FQPBRw_7MpNHda7E8-32" value="" style="whiteSpace=wrap;html=1;aspect=fixed;fillColor=#ffe6cc;strokeColor=#d79b00;container=0;" parent="fx7FQPBRw_7MpNHda7E8-68" vertex="1">
          <mxGeometry x="80" y="60" width="20" height="20" as="geometry" />
        </mxCell>
        <mxCell id="fx7FQPBRw_7MpNHda7E8-33" value="" style="whiteSpace=wrap;html=1;aspect=fixed;fillColor=#ffe6cc;strokeColor=#d79b00;container=0;" parent="fx7FQPBRw_7MpNHda7E8-68" vertex="1">
          <mxGeometry x="80" y="40" width="20" height="20" as="geometry" />
        </mxCell>
        <mxCell id="fx7FQPBRw_7MpNHda7E8-34" value="" style="whiteSpace=wrap;html=1;aspect=fixed;fillColor=#ffe6cc;strokeColor=#d79b00;container=0;" parent="fx7FQPBRw_7MpNHda7E8-68" vertex="1">
          <mxGeometry x="80" y="20" width="20" height="20" as="geometry" />
        </mxCell>
        <mxCell id="fx7FQPBRw_7MpNHda7E8-35" value="" style="whiteSpace=wrap;html=1;aspect=fixed;fillColor=#ffe6cc;strokeColor=#d79b00;container=0;" parent="fx7FQPBRw_7MpNHda7E8-68" vertex="1">
          <mxGeometry x="80" width="20" height="20" as="geometry" />
        </mxCell>
        <mxCell id="fx7FQPBRw_7MpNHda7E8-36" value="" style="whiteSpace=wrap;html=1;aspect=fixed;fillColor=#ffe6cc;strokeColor=#d79b00;container=0;" parent="fx7FQPBRw_7MpNHda7E8-68" vertex="1">
          <mxGeometry x="60" y="80" width="20" height="20" as="geometry" />
        </mxCell>
        <mxCell id="fx7FQPBRw_7MpNHda7E8-37" value="" style="whiteSpace=wrap;html=1;aspect=fixed;fillColor=#ffe6cc;strokeColor=#d79b00;container=0;" parent="fx7FQPBRw_7MpNHda7E8-68" vertex="1">
          <mxGeometry x="40" y="80" width="20" height="20" as="geometry" />
        </mxCell>
        <mxCell id="fx7FQPBRw_7MpNHda7E8-38" value="" style="whiteSpace=wrap;html=1;aspect=fixed;fillColor=#ffe6cc;strokeColor=#d79b00;container=0;" parent="fx7FQPBRw_7MpNHda7E8-68" vertex="1">
          <mxGeometry y="80" width="20" height="20" as="geometry" />
        </mxCell>
        <mxCell id="fx7FQPBRw_7MpNHda7E8-39" value="" style="whiteSpace=wrap;html=1;aspect=fixed;fillColor=#ffe6cc;strokeColor=#d79b00;container=0;" parent="fx7FQPBRw_7MpNHda7E8-68" vertex="1">
          <mxGeometry x="20" y="80" width="20" height="20" as="geometry" />
        </mxCell>
        <mxCell id="fx7FQPBRw_7MpNHda7E8-40" value="" style="whiteSpace=wrap;html=1;aspect=fixed;fillColor=#ffe6cc;strokeColor=#d79b00;container=0;" parent="fx7FQPBRw_7MpNHda7E8-68" vertex="1">
          <mxGeometry y="60" width="20" height="20" as="geometry" />
        </mxCell>
        <mxCell id="fx7FQPBRw_7MpNHda7E8-41" value="" style="whiteSpace=wrap;html=1;aspect=fixed;fillColor=#ffe6cc;strokeColor=#d79b00;container=0;" parent="fx7FQPBRw_7MpNHda7E8-68" vertex="1">
          <mxGeometry x="20" y="60" width="20" height="20" as="geometry" />
        </mxCell>
        <mxCell id="fx7FQPBRw_7MpNHda7E8-42" value="" style="whiteSpace=wrap;html=1;aspect=fixed;fillColor=#ffe6cc;strokeColor=#d79b00;container=0;" parent="fx7FQPBRw_7MpNHda7E8-68" vertex="1">
          <mxGeometry x="40" y="60" width="20" height="20" as="geometry" />
        </mxCell>
        <mxCell id="fx7FQPBRw_7MpNHda7E8-43" value="" style="whiteSpace=wrap;html=1;aspect=fixed;fillColor=#ffe6cc;strokeColor=#d79b00;container=0;" parent="fx7FQPBRw_7MpNHda7E8-68" vertex="1">
          <mxGeometry x="60" y="40" width="20" height="20" as="geometry" />
        </mxCell>
        <mxCell id="fx7FQPBRw_7MpNHda7E8-45" value="" style="whiteSpace=wrap;html=1;aspect=fixed;fillColor=#ffe6cc;strokeColor=#d79b00;container=0;" parent="fx7FQPBRw_7MpNHda7E8-68" vertex="1">
          <mxGeometry x="60" y="60" width="20" height="20" as="geometry" />
        </mxCell>
        <mxCell id="fx7FQPBRw_7MpNHda7E8-46" value="" style="whiteSpace=wrap;html=1;aspect=fixed;fillColor=#ffe6cc;strokeColor=#d79b00;container=0;" parent="fx7FQPBRw_7MpNHda7E8-68" vertex="1">
          <mxGeometry x="60" y="20" width="20" height="20" as="geometry" />
        </mxCell>
        <mxCell id="fx7FQPBRw_7MpNHda7E8-47" value="" style="whiteSpace=wrap;html=1;aspect=fixed;fillColor=#ffe6cc;strokeColor=#d79b00;container=0;" parent="fx7FQPBRw_7MpNHda7E8-68" vertex="1">
          <mxGeometry x="60" width="20" height="20" as="geometry" />
        </mxCell>
        <mxCell id="fx7FQPBRw_7MpNHda7E8-52" value="" style="whiteSpace=wrap;html=1;aspect=fixed;fillColor=#ffe6cc;strokeColor=#d79b00;container=0;" parent="fx7FQPBRw_7MpNHda7E8-68" vertex="1">
          <mxGeometry x="40" y="20" width="20" height="20" as="geometry" />
        </mxCell>
        <mxCell id="fx7FQPBRw_7MpNHda7E8-53" value="" style="whiteSpace=wrap;html=1;aspect=fixed;fillColor=#ffe6cc;strokeColor=#d79b00;container=0;" parent="fx7FQPBRw_7MpNHda7E8-68" vertex="1">
          <mxGeometry x="40" width="20" height="20" as="geometry" />
        </mxCell>
        <mxCell id="fx7FQPBRw_7MpNHda7E8-54" value="" style="whiteSpace=wrap;html=1;aspect=fixed;fillColor=#ffe6cc;strokeColor=#d79b00;container=0;" parent="fx7FQPBRw_7MpNHda7E8-68" vertex="1">
          <mxGeometry y="40" width="20" height="20" as="geometry" />
        </mxCell>
        <mxCell id="fx7FQPBRw_7MpNHda7E8-55" value="" style="whiteSpace=wrap;html=1;aspect=fixed;fillColor=#ffe6cc;strokeColor=#d79b00;container=0;" parent="fx7FQPBRw_7MpNHda7E8-68" vertex="1">
          <mxGeometry x="20" y="40" width="20" height="20" as="geometry" />
        </mxCell>
        <mxCell id="fx7FQPBRw_7MpNHda7E8-56" value="" style="whiteSpace=wrap;html=1;aspect=fixed;fillColor=#ffe6cc;strokeColor=#d79b00;container=0;" parent="fx7FQPBRw_7MpNHda7E8-68" vertex="1">
          <mxGeometry x="40" y="40" width="20" height="20" as="geometry" />
        </mxCell>
        <mxCell id="fx7FQPBRw_7MpNHda7E8-69" value="Accident Sample&lt;br&gt;5x5" style="text;html=1;strokeColor=none;fillColor=none;align=center;verticalAlign=middle;whiteSpace=wrap;rounded=0;" parent="fx7FQPBRw_7MpNHda7E8-74" vertex="1">
          <mxGeometry y="110" width="100" height="30" as="geometry" />
        </mxCell>
        <mxCell id="fx7FQPBRw_7MpNHda7E8-82" value="0" style="whiteSpace=wrap;html=1;aspect=fixed;fillColor=#f5f5f5;strokeColor=#666666;container=0;fontColor=#333333;" parent="gmC2cNr3imGh63kaWOty-566" vertex="1">
          <mxGeometry x="20" width="20" height="20" as="geometry" />
        </mxCell>
        <mxCell id="fx7FQPBRw_7MpNHda7E8-84" value="0" style="whiteSpace=wrap;html=1;aspect=fixed;fillColor=#f5f5f5;strokeColor=#666666;container=0;fontColor=#333333;" parent="gmC2cNr3imGh63kaWOty-566" vertex="1">
          <mxGeometry width="20" height="20" as="geometry" />
        </mxCell>
        <mxCell id="fx7FQPBRw_7MpNHda7E8-85" value="0" style="whiteSpace=wrap;html=1;aspect=fixed;fillColor=#f5f5f5;strokeColor=#666666;container=0;fontColor=#333333;" parent="gmC2cNr3imGh63kaWOty-566" vertex="1">
          <mxGeometry y="20" width="20" height="20" as="geometry" />
        </mxCell>
        <mxCell id="gmC2cNr3imGh63kaWOty-572" value="0" style="whiteSpace=wrap;html=1;aspect=fixed;fillColor=#f5f5f5;strokeColor=#666666;container=0;fontColor=#333333;" parent="1" vertex="1">
          <mxGeometry x="40" y="110" width="20" height="20" as="geometry" />
        </mxCell>
        <mxCell id="gmC2cNr3imGh63kaWOty-576" value="0" style="whiteSpace=wrap;html=1;aspect=fixed;fillColor=#f5f5f5;strokeColor=#666666;container=0;fontColor=#333333;" parent="1" vertex="1">
          <mxGeometry x="80" y="70" width="20" height="20" as="geometry" />
        </mxCell>
        <mxCell id="gmC2cNr3imGh63kaWOty-577" value="" style="whiteSpace=wrap;html=1;aspect=fixed;fillColor=#ffe6cc;strokeColor=#d79b00;container=0;" parent="1" vertex="1">
          <mxGeometry x="80" y="90" width="20" height="20" as="geometry" />
        </mxCell>
        <mxCell id="gmC2cNr3imGh63kaWOty-578" value="" style="whiteSpace=wrap;html=1;aspect=fixed;fillColor=#ffe6cc;strokeColor=#d79b00;container=0;" parent="1" vertex="1">
          <mxGeometry x="60" y="110" width="20" height="20" as="geometry" />
        </mxCell>
        <mxCell id="gmC2cNr3imGh63kaWOty-579" value="" style="whiteSpace=wrap;html=1;aspect=fixed;fillColor=#ffe6cc;strokeColor=#d79b00;container=0;" parent="1" vertex="1">
          <mxGeometry x="80" y="110" width="20" height="20" as="geometry" />
        </mxCell>
        <mxCell id="fx7FQPBRw_7MpNHda7E8-89" value="" style="endArrow=none;html=1;rounded=0;exitX=1;exitY=1;exitDx=0;exitDy=0;entryX=0;entryY=1;entryDx=0;entryDy=0;" parent="1" target="gmC2cNr3imGh63kaWOty-572" edge="1">
          <mxGeometry width="50" height="50" relative="1" as="geometry">
            <mxPoint x="40" y="70" as="sourcePoint" />
            <mxPoint x="10" y="170" as="targetPoint" />
          </mxGeometry>
        </mxCell>
        <mxCell id="fx7FQPBRw_7MpNHda7E8-90" value="" style="endArrow=none;html=1;rounded=0;exitX=0;exitY=1;exitDx=0;exitDy=0;entryX=1;entryY=0;entryDx=0;entryDy=0;" parent="1" target="gmC2cNr3imGh63kaWOty-576" edge="1">
          <mxGeometry width="50" height="50" relative="1" as="geometry">
            <mxPoint x="40" y="70" as="sourcePoint" />
            <mxPoint x="90" y="70" as="targetPoint" />
          </mxGeometry>
        </mxCell>
        <mxCell id="fx7FQPBRw_7MpNHda7E8-93" value="" style="endArrow=none;html=1;rounded=0;entryX=1;entryY=1;entryDx=0;entryDy=0;exitX=1;exitY=1;exitDx=0;exitDy=0;fillColor=#f5f5f5;strokeColor=#666666;" parent="1" source="fx7FQPBRw_7MpNHda7E8-49" target="fx7FQPBRw_7MpNHda7E8-67" edge="1">
          <mxGeometry width="50" height="50" relative="1" as="geometry">
            <mxPoint x="40" y="140" as="sourcePoint" />
            <mxPoint x="160" y="90" as="targetPoint" />
          </mxGeometry>
        </mxCell>
        <mxCell id="fx7FQPBRw_7MpNHda7E8-49" value="X" style="whiteSpace=wrap;html=1;aspect=fixed;fillColor=#f8cecc;strokeColor=#b85450;container=0;" parent="1" vertex="1">
          <mxGeometry x="80" y="110" width="20" height="20" as="geometry" />
        </mxCell>
        <mxCell id="1yNlWIdsg4cYrgy2wnR2-1" value="X" style="whiteSpace=wrap;html=1;aspect=fixed;fillColor=#f8cecc;strokeColor=#b85450;container=0;" vertex="1" parent="1">
          <mxGeometry x="60" y="110" width="20" height="20" as="geometry" />
        </mxCell>
        <mxCell id="1yNlWIdsg4cYrgy2wnR2-2" value="X" style="whiteSpace=wrap;html=1;aspect=fixed;fillColor=#f8cecc;strokeColor=#b85450;container=0;" vertex="1" parent="1">
          <mxGeometry x="60" y="90" width="20" height="20" as="geometry" />
        </mxCell>
        <mxCell id="1yNlWIdsg4cYrgy2wnR2-3" value="X" style="whiteSpace=wrap;html=1;aspect=fixed;fillColor=#f8cecc;strokeColor=#b85450;container=0;" vertex="1" parent="1">
          <mxGeometry x="80" y="90" width="20" height="20" as="geometry" />
        </mxCell>
        <mxCell id="fx7FQPBRw_7MpNHda7E8-79" value="" style="endArrow=none;html=1;rounded=0;entryX=1;entryY=1;entryDx=0;entryDy=0;exitX=1;exitY=0;exitDx=0;exitDy=0;" parent="1" source="gmC2cNr3imGh63kaWOty-576" target="fx7FQPBRw_7MpNHda7E8-49" edge="1">
          <mxGeometry width="50" height="50" relative="1" as="geometry">
            <mxPoint x="70" y="-10" as="sourcePoint" />
            <mxPoint x="69.83" y="70" as="targetPoint" />
          </mxGeometry>
        </mxCell>
        <mxCell id="fx7FQPBRw_7MpNHda7E8-78" value="" style="endArrow=none;html=1;rounded=0;exitX=0;exitY=1;exitDx=0;exitDy=0;entryX=1;entryY=1;entryDx=0;entryDy=0;" parent="1" source="gmC2cNr3imGh63kaWOty-572" edge="1" target="fx7FQPBRw_7MpNHda7E8-49">
          <mxGeometry width="50" height="50" relative="1" as="geometry">
            <mxPoint x="40" y="130" as="sourcePoint" />
            <mxPoint x="80" y="110" as="targetPoint" />
          </mxGeometry>
        </mxCell>
        <mxCell id="fx7FQPBRw_7MpNHda7E8-92" value="" style="endArrow=none;html=1;rounded=0;entryX=0;entryY=1;entryDx=0;entryDy=0;exitX=0;exitY=1;exitDx=0;exitDy=0;fillColor=#f5f5f5;strokeColor=#666666;" parent="1" source="gmC2cNr3imGh63kaWOty-572" target="fx7FQPBRw_7MpNHda7E8-65" edge="1">
          <mxGeometry width="50" height="50" relative="1" as="geometry">
            <mxPoint x="40" y="80" as="sourcePoint" />
            <mxPoint x="160" y="30" as="targetPoint" />
          </mxGeometry>
        </mxCell>
        <mxCell id="1yNlWIdsg4cYrgy2wnR2-5" value="" style="endArrow=none;html=1;rounded=0;exitX=1;exitY=0.5;exitDx=0;exitDy=0;entryX=0;entryY=0.5;entryDx=0;entryDy=0;" edge="1" parent="1" source="gmC2cNr3imGh63kaWOty-404" target="1yNlWIdsg4cYrgy2wnR2-4">
          <mxGeometry width="50" height="50" relative="1" as="geometry">
            <mxPoint x="660" y="110" as="sourcePoint" />
            <mxPoint x="710" y="60" as="targetPoint" />
          </mxGeometry>
        </mxCell>
        <mxCell id="1yNlWIdsg4cYrgy2wnR2-6" value="" style="endArrow=none;html=1;rounded=0;exitX=1;exitY=0.5;exitDx=0;exitDy=0;entryX=0;entryY=0.5;entryDx=0;entryDy=0;" edge="1" parent="1" source="gmC2cNr3imGh63kaWOty-405" target="1yNlWIdsg4cYrgy2wnR2-4">
          <mxGeometry width="50" height="50" relative="1" as="geometry">
            <mxPoint x="539" y="5" as="sourcePoint" />
            <mxPoint x="624" y="62" as="targetPoint" />
          </mxGeometry>
        </mxCell>
        <mxCell id="1yNlWIdsg4cYrgy2wnR2-7" value="" style="endArrow=none;html=1;rounded=0;exitX=1;exitY=0.5;exitDx=0;exitDy=0;entryX=0;entryY=0.5;entryDx=0;entryDy=0;" edge="1" parent="1" source="gmC2cNr3imGh63kaWOty-406" target="1yNlWIdsg4cYrgy2wnR2-4">
          <mxGeometry width="50" height="50" relative="1" as="geometry">
            <mxPoint x="549" y="15" as="sourcePoint" />
            <mxPoint x="634" y="72" as="targetPoint" />
          </mxGeometry>
        </mxCell>
        <mxCell id="1yNlWIdsg4cYrgy2wnR2-8" value="" style="endArrow=none;html=1;rounded=0;exitX=1;exitY=0.5;exitDx=0;exitDy=0;entryX=0;entryY=0.5;entryDx=0;entryDy=0;" edge="1" parent="1" source="gmC2cNr3imGh63kaWOty-408" target="1yNlWIdsg4cYrgy2wnR2-4">
          <mxGeometry width="50" height="50" relative="1" as="geometry">
            <mxPoint x="559" y="25" as="sourcePoint" />
            <mxPoint x="644" y="82" as="targetPoint" />
          </mxGeometry>
        </mxCell>
        <mxCell id="1yNlWIdsg4cYrgy2wnR2-9" value="" style="endArrow=none;html=1;rounded=0;exitX=1;exitY=0.5;exitDx=0;exitDy=0;entryX=0;entryY=0.5;entryDx=0;entryDy=0;" edge="1" parent="1" source="gmC2cNr3imGh63kaWOty-409" target="1yNlWIdsg4cYrgy2wnR2-4">
          <mxGeometry width="50" height="50" relative="1" as="geometry">
            <mxPoint x="569" y="35" as="sourcePoint" />
            <mxPoint x="654" y="92" as="targetPoint" />
          </mxGeometry>
        </mxCell>
        <mxCell id="1yNlWIdsg4cYrgy2wnR2-10" value="" style="endArrow=none;html=1;rounded=0;exitX=1;exitY=0.5;exitDx=0;exitDy=0;entryX=0;entryY=0.5;entryDx=0;entryDy=0;" edge="1" parent="1" source="gmC2cNr3imGh63kaWOty-410" target="1yNlWIdsg4cYrgy2wnR2-4">
          <mxGeometry width="50" height="50" relative="1" as="geometry">
            <mxPoint x="579" y="45" as="sourcePoint" />
            <mxPoint x="664" y="102" as="targetPoint" />
          </mxGeometry>
        </mxCell>
        <mxCell id="1yNlWIdsg4cYrgy2wnR2-11" value="" style="endArrow=none;html=1;rounded=0;exitX=1;exitY=0.5;exitDx=0;exitDy=0;entryX=0;entryY=0.5;entryDx=0;entryDy=0;" edge="1" parent="1" source="gmC2cNr3imGh63kaWOty-411" target="1yNlWIdsg4cYrgy2wnR2-4">
          <mxGeometry width="50" height="50" relative="1" as="geometry">
            <mxPoint x="589" y="55" as="sourcePoint" />
            <mxPoint x="674" y="112" as="targetPoint" />
          </mxGeometry>
        </mxCell>
        <mxCell id="1yNlWIdsg4cYrgy2wnR2-12" value="" style="endArrow=none;html=1;rounded=0;exitX=1;exitY=0.5;exitDx=0;exitDy=0;entryX=0;entryY=0.5;entryDx=0;entryDy=0;" edge="1" parent="1" source="gmC2cNr3imGh63kaWOty-412" target="1yNlWIdsg4cYrgy2wnR2-4">
          <mxGeometry width="50" height="50" relative="1" as="geometry">
            <mxPoint x="599" y="65" as="sourcePoint" />
            <mxPoint x="684" y="122" as="targetPoint" />
          </mxGeometry>
        </mxCell>
        <mxCell id="1yNlWIdsg4cYrgy2wnR2-13" value="" style="endArrow=none;html=1;rounded=0;exitX=0.947;exitY=0.467;exitDx=0;exitDy=0;entryX=0;entryY=0.5;entryDx=0;entryDy=0;exitPerimeter=0;" edge="1" parent="1" source="gmC2cNr3imGh63kaWOty-413" target="1yNlWIdsg4cYrgy2wnR2-4">
          <mxGeometry width="50" height="50" relative="1" as="geometry">
            <mxPoint x="609" y="75" as="sourcePoint" />
            <mxPoint x="694" y="132" as="targetPoint" />
          </mxGeometry>
        </mxCell>
        <mxCell id="1yNlWIdsg4cYrgy2wnR2-14" value="" style="endArrow=none;html=1;rounded=0;exitX=1;exitY=0.5;exitDx=0;exitDy=0;entryX=0;entryY=0.5;entryDx=0;entryDy=0;" edge="1" parent="1" source="gmC2cNr3imGh63kaWOty-414" target="1yNlWIdsg4cYrgy2wnR2-4">
          <mxGeometry width="50" height="50" relative="1" as="geometry">
            <mxPoint x="619" y="85" as="sourcePoint" />
            <mxPoint x="704" y="142" as="targetPoint" />
          </mxGeometry>
        </mxCell>
        <mxCell id="1yNlWIdsg4cYrgy2wnR2-16" value="" style="endArrow=none;html=1;rounded=0;exitX=1;exitY=0.5;exitDx=0;exitDy=0;entryX=0;entryY=0.5;entryDx=0;entryDy=0;" edge="1" parent="1" source="gmC2cNr3imGh63kaWOty-446" target="1yNlWIdsg4cYrgy2wnR2-4">
          <mxGeometry width="50" height="50" relative="1" as="geometry">
            <mxPoint x="639" y="105" as="sourcePoint" />
            <mxPoint x="724" y="162" as="targetPoint" />
          </mxGeometry>
        </mxCell>
        <mxCell id="1yNlWIdsg4cYrgy2wnR2-18" value="" style="endArrow=none;html=1;rounded=0;exitX=1;exitY=0.5;exitDx=0;exitDy=0;entryX=0;entryY=0.5;entryDx=0;entryDy=0;" edge="1" parent="1" source="gmC2cNr3imGh63kaWOty-447" target="1yNlWIdsg4cYrgy2wnR2-4">
          <mxGeometry width="50" height="50" relative="1" as="geometry">
            <mxPoint x="659" y="125" as="sourcePoint" />
            <mxPoint x="744" y="182" as="targetPoint" />
          </mxGeometry>
        </mxCell>
        <mxCell id="1yNlWIdsg4cYrgy2wnR2-19" value="" style="endArrow=none;html=1;rounded=0;exitX=1;exitY=0.5;exitDx=0;exitDy=0;entryX=0;entryY=0.5;entryDx=0;entryDy=0;" edge="1" parent="1" source="gmC2cNr3imGh63kaWOty-448" target="1yNlWIdsg4cYrgy2wnR2-4">
          <mxGeometry width="50" height="50" relative="1" as="geometry">
            <mxPoint x="669" y="135" as="sourcePoint" />
            <mxPoint x="754" y="192" as="targetPoint" />
          </mxGeometry>
        </mxCell>
        <mxCell id="1yNlWIdsg4cYrgy2wnR2-20" value="" style="endArrow=none;html=1;rounded=0;exitX=1;exitY=0.5;exitDx=0;exitDy=0;entryX=0;entryY=0.5;entryDx=0;entryDy=0;" edge="1" parent="1" source="gmC2cNr3imGh63kaWOty-465" target="1yNlWIdsg4cYrgy2wnR2-4">
          <mxGeometry width="50" height="50" relative="1" as="geometry">
            <mxPoint x="679" y="145" as="sourcePoint" />
            <mxPoint x="764" y="202" as="targetPoint" />
          </mxGeometry>
        </mxCell>
        <mxCell id="1yNlWIdsg4cYrgy2wnR2-21" value="" style="endArrow=none;html=1;rounded=0;exitX=1;exitY=0.5;exitDx=0;exitDy=0;entryX=0;entryY=0.5;entryDx=0;entryDy=0;" edge="1" parent="1" source="gmC2cNr3imGh63kaWOty-464" target="1yNlWIdsg4cYrgy2wnR2-4">
          <mxGeometry width="50" height="50" relative="1" as="geometry">
            <mxPoint x="689" y="155" as="sourcePoint" />
            <mxPoint x="774" y="212" as="targetPoint" />
          </mxGeometry>
        </mxCell>
        <mxCell id="1yNlWIdsg4cYrgy2wnR2-22" value="" style="endArrow=none;html=1;rounded=0;exitX=1;exitY=0.5;exitDx=0;exitDy=0;entryX=0;entryY=0.5;entryDx=0;entryDy=0;" edge="1" parent="1" source="gmC2cNr3imGh63kaWOty-463" target="1yNlWIdsg4cYrgy2wnR2-4">
          <mxGeometry width="50" height="50" relative="1" as="geometry">
            <mxPoint x="699" y="165" as="sourcePoint" />
            <mxPoint x="784" y="222" as="targetPoint" />
          </mxGeometry>
        </mxCell>
        <mxCell id="1yNlWIdsg4cYrgy2wnR2-23" value="" style="endArrow=none;html=1;rounded=0;exitX=1;exitY=0.5;exitDx=0;exitDy=0;entryX=0;entryY=0.5;entryDx=0;entryDy=0;" edge="1" parent="1" source="gmC2cNr3imGh63kaWOty-462" target="1yNlWIdsg4cYrgy2wnR2-4">
          <mxGeometry width="50" height="50" relative="1" as="geometry">
            <mxPoint x="709" y="175" as="sourcePoint" />
            <mxPoint x="794" y="232" as="targetPoint" />
          </mxGeometry>
        </mxCell>
        <mxCell id="1yNlWIdsg4cYrgy2wnR2-24" value="" style="endArrow=none;html=1;rounded=0;exitX=1;exitY=0.5;exitDx=0;exitDy=0;entryX=0;entryY=0.5;entryDx=0;entryDy=0;" edge="1" parent="1" source="1yNlWIdsg4cYrgy2wnR2-4" target="gmC2cNr3imGh63kaWOty-488">
          <mxGeometry width="50" height="50" relative="1" as="geometry">
            <mxPoint x="630" y="150" as="sourcePoint" />
            <mxPoint x="680" y="100" as="targetPoint" />
          </mxGeometry>
        </mxCell>
        <mxCell id="1yNlWIdsg4cYrgy2wnR2-25" value="" style="endArrow=none;html=1;rounded=0;exitX=1;exitY=0.5;exitDx=0;exitDy=0;entryX=0;entryY=0.5;entryDx=0;entryDy=0;" edge="1" parent="1" source="1yNlWIdsg4cYrgy2wnR2-4" target="gmC2cNr3imGh63kaWOty-550">
          <mxGeometry width="50" height="50" relative="1" as="geometry">
            <mxPoint x="719" y="185" as="sourcePoint" />
            <mxPoint x="804" y="242" as="targetPoint" />
          </mxGeometry>
        </mxCell>
        <mxCell id="1yNlWIdsg4cYrgy2wnR2-28" value="" style="endArrow=none;html=1;rounded=0;exitX=1;exitY=0.5;exitDx=0;exitDy=0;entryX=0;entryY=0.5;entryDx=0;entryDy=0;" edge="1" parent="1" source="gmC2cNr3imGh63kaWOty-404" target="1yNlWIdsg4cYrgy2wnR2-27">
          <mxGeometry width="50" height="50" relative="1" as="geometry">
            <mxPoint x="600" y="110" as="sourcePoint" />
            <mxPoint x="650" y="60" as="targetPoint" />
          </mxGeometry>
        </mxCell>
        <mxCell id="1yNlWIdsg4cYrgy2wnR2-31" value="" style="endArrow=none;html=1;rounded=0;exitX=1;exitY=0.5;exitDx=0;exitDy=0;entryX=0;entryY=0.5;entryDx=0;entryDy=0;strokeWidth=1;jumpSize=3;" edge="1" parent="1" source="gmC2cNr3imGh63kaWOty-405" target="1yNlWIdsg4cYrgy2wnR2-27">
          <mxGeometry width="50" height="50" relative="1" as="geometry">
            <mxPoint x="539" y="5" as="sourcePoint" />
            <mxPoint x="624" y="162" as="targetPoint" />
          </mxGeometry>
        </mxCell>
        <mxCell id="1yNlWIdsg4cYrgy2wnR2-32" value="" style="endArrow=none;html=1;rounded=0;exitX=1;exitY=0.5;exitDx=0;exitDy=0;entryX=0;entryY=0.5;entryDx=0;entryDy=0;" edge="1" parent="1" source="gmC2cNr3imGh63kaWOty-406" target="1yNlWIdsg4cYrgy2wnR2-27">
          <mxGeometry width="50" height="50" relative="1" as="geometry">
            <mxPoint x="549" y="15" as="sourcePoint" />
            <mxPoint x="634" y="172" as="targetPoint" />
          </mxGeometry>
        </mxCell>
        <mxCell id="1yNlWIdsg4cYrgy2wnR2-33" value="" style="endArrow=none;html=1;rounded=0;exitX=1;exitY=0.5;exitDx=0;exitDy=0;entryX=0;entryY=0.5;entryDx=0;entryDy=0;" edge="1" parent="1" source="gmC2cNr3imGh63kaWOty-408" target="1yNlWIdsg4cYrgy2wnR2-27">
          <mxGeometry width="50" height="50" relative="1" as="geometry">
            <mxPoint x="559" y="25" as="sourcePoint" />
            <mxPoint x="644" y="182" as="targetPoint" />
          </mxGeometry>
        </mxCell>
        <mxCell id="1yNlWIdsg4cYrgy2wnR2-34" value="" style="endArrow=none;html=1;rounded=0;exitX=1;exitY=0.5;exitDx=0;exitDy=0;entryX=0;entryY=0.5;entryDx=0;entryDy=0;" edge="1" parent="1" source="gmC2cNr3imGh63kaWOty-409" target="1yNlWIdsg4cYrgy2wnR2-27">
          <mxGeometry width="50" height="50" relative="1" as="geometry">
            <mxPoint x="569" y="35" as="sourcePoint" />
            <mxPoint x="654" y="192" as="targetPoint" />
          </mxGeometry>
        </mxCell>
        <mxCell id="1yNlWIdsg4cYrgy2wnR2-36" value="" style="endArrow=none;html=1;rounded=0;exitX=1;exitY=0.5;exitDx=0;exitDy=0;entryX=0;entryY=0.5;entryDx=0;entryDy=0;" edge="1" parent="1" source="gmC2cNr3imGh63kaWOty-410" target="1yNlWIdsg4cYrgy2wnR2-27">
          <mxGeometry width="50" height="50" relative="1" as="geometry">
            <mxPoint x="589" y="55" as="sourcePoint" />
            <mxPoint x="674" y="212" as="targetPoint" />
          </mxGeometry>
        </mxCell>
        <mxCell id="1yNlWIdsg4cYrgy2wnR2-37" value="" style="endArrow=none;html=1;rounded=0;exitX=1;exitY=0.5;exitDx=0;exitDy=0;entryX=0;entryY=0.5;entryDx=0;entryDy=0;" edge="1" parent="1" source="gmC2cNr3imGh63kaWOty-411" target="1yNlWIdsg4cYrgy2wnR2-27">
          <mxGeometry width="50" height="50" relative="1" as="geometry">
            <mxPoint x="599" y="65" as="sourcePoint" />
            <mxPoint x="684" y="222" as="targetPoint" />
          </mxGeometry>
        </mxCell>
        <mxCell id="1yNlWIdsg4cYrgy2wnR2-38" value="" style="endArrow=none;html=1;rounded=0;exitX=1;exitY=0.5;exitDx=0;exitDy=0;entryX=0;entryY=0.5;entryDx=0;entryDy=0;" edge="1" parent="1" source="gmC2cNr3imGh63kaWOty-412" target="1yNlWIdsg4cYrgy2wnR2-27">
          <mxGeometry width="50" height="50" relative="1" as="geometry">
            <mxPoint x="609" y="75" as="sourcePoint" />
            <mxPoint x="694" y="232" as="targetPoint" />
          </mxGeometry>
        </mxCell>
        <mxCell id="1yNlWIdsg4cYrgy2wnR2-39" value="" style="endArrow=none;html=1;rounded=0;exitX=1;exitY=0.5;exitDx=0;exitDy=0;entryX=0;entryY=0.5;entryDx=0;entryDy=0;" edge="1" parent="1" source="gmC2cNr3imGh63kaWOty-413" target="1yNlWIdsg4cYrgy2wnR2-27">
          <mxGeometry width="50" height="50" relative="1" as="geometry">
            <mxPoint x="619" y="85" as="sourcePoint" />
            <mxPoint x="704" y="242" as="targetPoint" />
          </mxGeometry>
        </mxCell>
        <mxCell id="1yNlWIdsg4cYrgy2wnR2-40" value="" style="endArrow=none;html=1;rounded=0;exitX=1;exitY=0.5;exitDx=0;exitDy=0;entryX=0;entryY=0.5;entryDx=0;entryDy=0;" edge="1" parent="1" source="gmC2cNr3imGh63kaWOty-414" target="1yNlWIdsg4cYrgy2wnR2-27">
          <mxGeometry width="50" height="50" relative="1" as="geometry">
            <mxPoint x="629" y="95" as="sourcePoint" />
            <mxPoint x="714" y="252" as="targetPoint" />
          </mxGeometry>
        </mxCell>
        <mxCell id="1yNlWIdsg4cYrgy2wnR2-41" value="" style="endArrow=none;html=1;rounded=0;exitX=1;exitY=0.5;exitDx=0;exitDy=0;entryX=0;entryY=0.5;entryDx=0;entryDy=0;" edge="1" parent="1" source="gmC2cNr3imGh63kaWOty-446" target="1yNlWIdsg4cYrgy2wnR2-27">
          <mxGeometry width="50" height="50" relative="1" as="geometry">
            <mxPoint x="639" y="105" as="sourcePoint" />
            <mxPoint x="724" y="262" as="targetPoint" />
          </mxGeometry>
        </mxCell>
        <mxCell id="1yNlWIdsg4cYrgy2wnR2-42" value="" style="endArrow=none;html=1;rounded=0;exitX=1;exitY=0.5;exitDx=0;exitDy=0;entryX=0;entryY=0.5;entryDx=0;entryDy=0;" edge="1" parent="1" source="gmC2cNr3imGh63kaWOty-447" target="1yNlWIdsg4cYrgy2wnR2-27">
          <mxGeometry width="50" height="50" relative="1" as="geometry">
            <mxPoint x="649" y="115" as="sourcePoint" />
            <mxPoint x="720" y="280" as="targetPoint" />
          </mxGeometry>
        </mxCell>
        <mxCell id="1yNlWIdsg4cYrgy2wnR2-43" value="" style="endArrow=none;html=1;rounded=0;exitX=1;exitY=0.5;exitDx=0;exitDy=0;entryX=0;entryY=0.5;entryDx=0;entryDy=0;" edge="1" parent="1" source="gmC2cNr3imGh63kaWOty-448" target="1yNlWIdsg4cYrgy2wnR2-27">
          <mxGeometry width="50" height="50" relative="1" as="geometry">
            <mxPoint x="659" y="125" as="sourcePoint" />
            <mxPoint x="744" y="282" as="targetPoint" />
          </mxGeometry>
        </mxCell>
        <mxCell id="1yNlWIdsg4cYrgy2wnR2-44" value="" style="endArrow=none;html=1;rounded=0;entryX=0;entryY=0.5;entryDx=0;entryDy=0;exitX=1;exitY=0.5;exitDx=0;exitDy=0;" edge="1" parent="1" source="gmC2cNr3imGh63kaWOty-465" target="1yNlWIdsg4cYrgy2wnR2-27">
          <mxGeometry width="50" height="50" relative="1" as="geometry">
            <mxPoint x="550" y="210" as="sourcePoint" />
            <mxPoint x="600" y="160" as="targetPoint" />
          </mxGeometry>
        </mxCell>
        <mxCell id="1yNlWIdsg4cYrgy2wnR2-46" value="" style="endArrow=none;html=1;rounded=0;entryX=0;entryY=0.5;entryDx=0;entryDy=0;exitX=1;exitY=0.5;exitDx=0;exitDy=0;" edge="1" parent="1" source="gmC2cNr3imGh63kaWOty-464" target="1yNlWIdsg4cYrgy2wnR2-27">
          <mxGeometry width="50" height="50" relative="1" as="geometry">
            <mxPoint x="539" y="245" as="sourcePoint" />
            <mxPoint x="624" y="162" as="targetPoint" />
          </mxGeometry>
        </mxCell>
        <mxCell id="1yNlWIdsg4cYrgy2wnR2-47" value="" style="endArrow=none;html=1;rounded=0;entryX=0;entryY=0.5;entryDx=0;entryDy=0;exitX=1;exitY=0.5;exitDx=0;exitDy=0;" edge="1" parent="1" source="gmC2cNr3imGh63kaWOty-463" target="1yNlWIdsg4cYrgy2wnR2-27">
          <mxGeometry width="50" height="50" relative="1" as="geometry">
            <mxPoint x="549" y="255" as="sourcePoint" />
            <mxPoint x="634" y="172" as="targetPoint" />
          </mxGeometry>
        </mxCell>
        <mxCell id="1yNlWIdsg4cYrgy2wnR2-48" value="" style="endArrow=none;html=1;rounded=0;entryX=0;entryY=0.5;entryDx=0;entryDy=0;exitX=1;exitY=0.5;exitDx=0;exitDy=0;" edge="1" parent="1" source="gmC2cNr3imGh63kaWOty-462" target="1yNlWIdsg4cYrgy2wnR2-27">
          <mxGeometry width="50" height="50" relative="1" as="geometry">
            <mxPoint x="559" y="265" as="sourcePoint" />
            <mxPoint x="644" y="182" as="targetPoint" />
          </mxGeometry>
        </mxCell>
        <mxCell id="1yNlWIdsg4cYrgy2wnR2-49" value="" style="endArrow=none;html=1;rounded=0;entryX=0;entryY=0.5;entryDx=0;entryDy=0;exitX=1;exitY=0.5;exitDx=0;exitDy=0;" edge="1" parent="1" source="1yNlWIdsg4cYrgy2wnR2-27" target="gmC2cNr3imGh63kaWOty-550">
          <mxGeometry width="50" height="50" relative="1" as="geometry">
            <mxPoint x="569" y="275" as="sourcePoint" />
            <mxPoint x="654" y="192" as="targetPoint" />
          </mxGeometry>
        </mxCell>
        <mxCell id="1yNlWIdsg4cYrgy2wnR2-50" value="" style="endArrow=none;html=1;rounded=0;entryX=0;entryY=0.5;entryDx=0;entryDy=0;exitX=1.097;exitY=0.489;exitDx=0;exitDy=0;exitPerimeter=0;" edge="1" parent="1" source="1yNlWIdsg4cYrgy2wnR2-27" target="gmC2cNr3imGh63kaWOty-488">
          <mxGeometry width="50" height="50" relative="1" as="geometry">
            <mxPoint x="579" y="285" as="sourcePoint" />
            <mxPoint x="664" y="202" as="targetPoint" />
          </mxGeometry>
        </mxCell>
        <mxCell id="1yNlWIdsg4cYrgy2wnR2-51" value="&lt;font style=&quot;font-size: 6px;&quot;&gt;Padding&lt;/font&gt;" style="text;html=1;strokeColor=none;fillColor=none;align=center;verticalAlign=middle;whiteSpace=wrap;rounded=0;" vertex="1" parent="1">
          <mxGeometry x="18" y="120" width="60" height="30" as="geometry" />
        </mxCell>
        <mxCell id="1yNlWIdsg4cYrgy2wnR2-57" value="&lt;font style=&quot;font-size: 6px;&quot;&gt;Stride 1&lt;/font&gt;" style="text;html=1;strokeColor=none;fillColor=none;align=center;verticalAlign=middle;whiteSpace=wrap;rounded=0;" vertex="1" parent="1">
          <mxGeometry x="264" y="140" width="60" height="30" as="geometry" />
        </mxCell>
      </root>
    </mxGraphModel>
  </diagram>
</mxfile>
